<svg xmlns="http://www.w3.org/2000/svg" xmlns:xlink="http://www.w3.org/1999/xlink" width="558.048" height="390.32" viewBox="0 0 558.048 390.32"><defs><style>.a{fill:#6c63ff;}.a,.b,.e,.j,.w{opacity:0.1;}.b{fill:#bcd9e7;}.c{fill:url(#a);}.d,.w{fill:#fff;}.f{fill:#cf6f80;}.g{fill:#4eabf9;}.h{fill:#3f3d56;}.i{fill:#512e4e;}.k{fill:#535461;}.l{fill:#9d9cb5;}.m{fill:#fce0e0;}.n{fill:none;stroke:#535461;stroke-miterlimit:10;stroke-width:2px;}.o{fill:url(#b);}.p{fill:#1d2366;}.q{fill:#ffb0b1;}.r{fill:#c7daf5;}.s{opacity:0.03;}.t{fill:#dce7ff;}.u{fill:#591d4b;}.v{fill:#be8b87;}.x{fill:#efc8c4;}.y{fill:#727a9c;}</style><linearGradient id="a" x1="0.5" y1="1" x2="0.5" gradientUnits="objectBoundingBox"><stop offset="0" stop-color="gray" stop-opacity="0.251"/><stop offset="0.54" stop-color="gray" stop-opacity="0.122"/><stop offset="1" stop-color="gray" stop-opacity="0.102"/></linearGradient><linearGradient id="b" x1="0.5" y1="1" x2="0.5" y2="0" xlink:href="#a"/></defs><g transform="translate(0.485)"><ellipse class="a" cx="49.186" cy="7.9" rx="49.186" ry="7.9" transform="translate(136.02 374.298)"/><ellipse class="a" cx="61.377" cy="7.9" rx="61.377" ry="7.9" transform="translate(391.2 374.52)"/><path class="a" d="M60.05,396.83h51.231v69.827H63.8c-.126.717-.247,1.439-.379,2.16h47.859v56.314c-.086-.025-.162-.056-.242-.086-1.353-.535-2.7-1.1-4.038-1.706l-.858-.389q-2.019-.954-4.038-2.019c-.469-.247-.939-.5-1.4-.767A84.01,84.01,0,0,1,80.57,504.435c-.172-.167-.333-.343-.5-.5-.818-.888-1.62-1.787-2.4-2.706l-.858-1.01c-.919-1.126-1.807-2.282-2.67-3.453-.126-.172-.247-.343-.379-.5a75.153,75.153,0,0,1-8.682-15.7c-.071-.167-.131-.348-.2-.5q-1.04-2.675-1.842-5.4c-.232-.762-.454-1.514-.646-2.307-.071-.232-.131-.459-.187-.686C59.338,460.469,59,448.843,59,437.3V433.26c0-4.669.056-9.369.136-14.063,0-1.217.05-2.428.076-3.65q.106-4.649.3-9.3c.03-.863.071-1.721.116-2.579a14.61,14.61,0,0,1,.076-1.484C59.828,400.389,59.929,398.607,60.05,396.83Z" transform="translate(-53.306 -230.908)"/><path class="b" d="M135,207.967H106.9a213.028,213.028,0,0,1,14.947-20.575c4.175-5.129,8.581-10.126,13.155-14.942Z" transform="translate(-77.027 -114.992)"/><path class="b" d="M112.469,247.09v73.426H61.4c0-.212.035-.429.05-.641.045-.581.091-1.161.141-1.736.056-.676.116-1.358.182-2.019s.136-1.469.212-2.2.146-1.474.232-2.206.162-1.464.252-2.191.172-1.464.268-2.191c.076-.606.156-1.206.237-1.812.116-.853.237-1.711.368-2.559a2.36,2.36,0,0,1,.056-.379,174.6,174.6,0,0,1,3.761-18.435,136.333,136.333,0,0,1,6.335-18.677,140.206,140.206,0,0,1,9.53-18.354Z" transform="translate(-54.495 -151.955)"/><path class="b" d="M186.8,229.341v69.832H296.223V229.341Zm0,71.988V361.3c.626.131,1.247.257,1.863.363.838.162,1.671.308,2.524.434.162.025.328.05.5.066.333.056.676.1,1.01.146.843.116,1.681.212,2.524.288.4.04.8.076,1.206.106l.974.076h0c.53.04,1.055.071,1.575.086.323,0,.646.03.979.04h3.6c.434,0,.868,0,1.3-.04h.03a6.8,6.8,0,0,0,.9-.04,2.123,2.123,0,0,0,.252,0,5.214,5.214,0,0,0,.747-.035h.177l1.691-.131c.555-.05,1.116-.116,1.681-.177l1.151-.136a100.674,100.674,0,0,0,13.856-2.948c10.207-2.847,20.191-6.83,30.393-9.747,13.19-3.761,27.763-5.608,40.509-1.01V301.329ZM296.223,151.6V58.632a140.669,140.669,0,0,0-35.552,4.17C232.963,69.762,208.1,84.861,186.8,104.144v47.45h5.492v2.155H186.8v73.436H296.223V153.754H214.841V151.6Zm140.548-31.4a45.324,45.324,0,0,1-19.833-5.765c-11.787-6.411-21.2-16.31-31.721-24.664a145.639,145.639,0,0,0-76.773-30.5V151.6H464.65l.389-.409ZM451,117.672l15.088,16.557v-20.9c-5.053.626-9.48,2.115-15.068,4.321Zm15.088,258.517v-74.86h-32.15c-.086-.318-.172-.641-.273-.964.1.323.177.646.268.964H308.464v54.138c1.191.883,2.367,1.812,3.534,2.756h0c1.257,1.01,2.5,2.075,3.746,3.12l1.257,1.04c.6.5,1.206,1.01,1.817,1.484q1.817,1.474,3.67,2.908c.611.5,1.237.959,1.858,1.434a253.011,253.011,0,0,0,31.11,20.348q3.65,2.019,7.365,3.942c1.651.843,3.311,1.681,4.977,2.494q3.756,1.832,7.572,3.534h0a278.056,278.056,0,0,0,73.7,21.469q8.475,1.252,17.016,1.969V376.183h.5ZM308.464,153.754v73.431H466.109V153.754Zm0,75.587v69.832H466.109V229.341Zm169.881-116.1v23.311L497.6,115.42q-9.571-1.545-19.258-2.206Zm0,116.126v69.807H631.674V229.341ZM631.114,381.731l.54-80.4H478.345V422.765a274.969,274.969,0,0,0,29.631-.353h.172q7.067-.444,14.068-1.292h.106a259.077,259.077,0,0,0,72.286-19.288M661.24,240.84c-.575-1.358-1.176-2.706-1.787-4.038-1.141-2.524-2.347-4.977-3.589-7.43H643.9v69.8h30.247c-.015-19.767-5.018-39.959-12.892-58.358ZM643.9,301.354V370.51a99.069,99.069,0,0,0,20.9-28.192,96.919,96.919,0,0,0,9.318-40.974Zm0-92.336V227.19h10.843a196.833,196.833,0,0,0-10.828-18.2ZM539.914,126.94c-.8-.3-1.6-.611-2.4-.909a218.869,218.869,0,0,0-25.9-7.784l-29.47,32.342h0l-.565.6.379.414H586.844a224.334,224.334,0,0,0-46.915-24.689Zm50,26.84H480.5l-2.15,1.969v71.437H631.694v-34.6a218.475,218.475,0,0,0-41.761-38.828Z" transform="translate(-116.594 -58.624)"/><path class="a" d="M112.469,320.46v36.39H61.4c0-.212.035-.429.05-.641.045-.581.091-1.161.141-1.736.056-.676.116-1.358.182-2.019s.136-1.469.212-2.2.146-1.474.232-2.206.162-1.464.252-2.191.172-1.464.268-2.191c.076-.606.156-1.206.237-1.812.116-.853.237-1.711.368-2.559a2.36,2.36,0,0,1,.056-.379A174.6,174.6,0,0,1,67.16,320.48Z" transform="translate(-54.495 -193.089)"/><path class="b" d="M60.05,396.83h51.231v69.827H63.8c-.126.717-.247,1.439-.379,2.16h47.859v56.314c-.086-.025-.162-.056-.242-.086-1.353-.535-2.7-1.1-4.038-1.706l-.858-.389q-2.019-.954-4.038-2.019c-.469-.247-.939-.5-1.4-.767A84.01,84.01,0,0,1,80.57,504.435c-.172-.167-.333-.343-.5-.5-.818-.888-1.62-1.787-2.4-2.706l-.858-1.01c-.919-1.126-1.807-2.282-2.67-3.453-.126-.172-.247-.343-.379-.5a75.153,75.153,0,0,1-8.682-15.7c-.071-.167-.131-.348-.2-.5q-1.04-2.675-1.842-5.4c-.232-.762-.454-1.514-.646-2.307-.071-.232-.131-.459-.187-.686C59.338,460.469,59,448.843,59,437.3V433.26c0-4.669.056-9.369.136-14.063,0-1.217.05-2.428.076-3.65q.106-4.649.3-9.3c.03-.863.071-1.721.116-2.579a14.61,14.61,0,0,1,.076-1.484C59.828,400.389,59.929,398.607,60.05,396.83Z" transform="translate(-53.306 -226.108)"/><path class="b" d="M178.08,188.382V251.3H139.56V188.382h5.492v-21.3H167.6v21.3Z" transform="translate(-69.354 -87.537)"/><rect class="b" width="38.515" height="69.827" transform="translate(70.211 165.917)"/><path class="b" d="M186.8,539.44h38.52v58.051a100.524,100.524,0,0,1-13.856,2.943l-1.151.141c-.565.066-1.126.121-1.681.177s-1.131.1-1.691.131h-.177c-.242,0-.5.03-.742.035h-.257c-.3,0-.606.03-.909.04h0c-.429.025-.858.03-1.3.035h-3.574l-.974-.035c-.5,0-1.05-.055-1.575-.091h0l-.969-.071-1.206-.111c-.848-.076-1.691-.172-2.524-.288l-1.01-.141-.5-.071c-.843-.131-1.676-.273-2.524-.434-.621-.106-1.237-.237-1.863-.363Z" transform="translate(-116.594 -301.531)"/><rect class="a" width="31.761" height="70.342" transform="translate(317.754 93.414)"/><path class="b" d="M538.23,338.19v69.832H380.58V377.9h83.971V395.67h41.912V338.19Z" transform="translate(-188.71 -167.473)"/><path class="b" d="M585.97,613.364h-.5v45.809q-8.531-.722-17.011-1.964A278.069,278.069,0,0,1,494.725,635.7q-10.161-4.573-19.909-9.985A254.048,254.048,0,0,1,443.7,605.363q-3.715-2.847-7.335-5.825c-1.671-1.378-3.332-2.791-5.013-4.164-1.166-.944-2.342-1.873-3.533-2.761V538.494H553.285c-.086-.323-.172-.646-.262-.964.1.318.187.641.272.964h32.17v74.84C585.637,613.339,585.8,613.354,585.97,613.364Z" transform="translate(-235.95 -295.784)"/><path class="b" d="M883.916,217.708h-20.7v-6.431H872.5V192.12q1.206.439,2.4.9v18.253h9.016Z" transform="translate(-451.566 -124.733)"/><path class="b" d="M884.822,320.516h-101.6l.035.025-.045-.025H764.36V250.174H769.7v51.993h24.406V271.375h20.161V247.09h20.7V271.4h20.161v30.792h29.7Z" transform="translate(-402.609 -151.955)"/><path class="b" d="M764.36,396.82v69.832H884.822V396.82ZM917.523,548.852l.167-55.274H884.822V468.843H764.36v121.4a274.976,274.976,0,0,0,29.631-.353h.172q7.067-.444,14.068-1.292h.106a259.081,259.081,0,0,0,72.286-19.288" transform="translate(-402.609 -226.103)"/><path class="b" d="M1094.49,539.44h28.1a97.223,97.223,0,0,1-9.323,40.969,99.1,99.1,0,0,1-20.9,28.192V564.18h2.12Z" transform="translate(-565.044 -296.73)"/><path class="b" d="M1124.687,477.908H1096.57V419.55h15.214C1119.659,437.95,1124.662,458.141,1124.687,477.908Z" transform="translate(-567.124 -237.359)"/><rect class="a" width="17.016" height="22.054" transform="translate(332.503 112.97)"/><rect class="a" width="17.016" height="5.078" transform="translate(332.503 158.683)"/><rect class="a" width="17.016" height="14.816" transform="translate(332.503 165.917)"/><rect class="b" width="17.016" height="22.054" transform="translate(332.503 204.397)"/><rect class="b" width="17.016" height="22.054" transform="translate(332.503 250.11)"/><path class="b" d="M723.431,671.1a2.793,2.793,0,0,1,.5.03h-.5v5.124H706.42V654.17h17.011Z" transform="translate(-373.917 -358.346)"/><path class="b" d="M723.431,744.71v17.037q-8.531-.722-17.011-1.964V744.71Z" transform="translate(-373.917 -403.183)"/><rect class="a" width="72.927" height="1.62" transform="translate(191.87 234.129)"/><rect class="b" width="72.927" height="6.209" transform="translate(191.87 237.904)"/><rect class="b" width="72.927" height="9.985" transform="translate(191.87 269.267)"/><path class="b" d="M504.2,652.15v9.985H447.162q-3.715-2.837-7.34-5.825c-1.671-1.378-3.327-2.792-5.013-4.159Z" transform="translate(-239.412 -352.546)"/><path class="b" d="M546.846,712.225V722.2h-6.022q-10.151-4.578-19.9-9.99Z" transform="translate(-282.055 -387.088)"/><rect class="a" width="14.356" height="14.356" transform="translate(391.387 172.686)"/><rect class="b" width="14.356" height="14.356" transform="translate(80.549 105.796)"/><rect class="b" width="14.356" height="14.356" transform="translate(80.549 139.143)"/><rect class="b" width="14.356" height="14.356" transform="translate(80.549 172.489)"/><rect class="b" width="14.356" height="14.356" transform="translate(80.549 205.83)"/><rect class="a" width="14.356" height="14.356" transform="translate(80.549 239.176)"/><rect class="b" width="14.356" height="14.356" transform="translate(80.549 272.523)"/><rect class="a" width="14.356" height="14.356" transform="translate(446.192 172.686)"/><rect class="b" width="14.356" height="14.356" transform="translate(391.387 208.097)"/><rect class="a" width="14.356" height="14.356" transform="translate(446.192 208.097)"/><rect class="b" width="14.356" height="14.356" transform="translate(391.387 243.502)"/><rect class="a" width="14.356" height="14.356" transform="translate(446.192 243.502)"/><rect class="b" width="14.356" height="14.356" transform="translate(391.387 278.913)"/><rect class="a" width="14.356" height="14.356" transform="translate(446.192 278.913)"/><rect class="b" width="14.356" height="14.356" transform="translate(391.387 314.324)"/><rect class="b" width="14.356" height="14.356" transform="translate(446.192 314.324)"/><path class="b" d="M775.83,711.588V702.33h14.351v7.94Z" transform="translate(-384.443 -352.6)"/><path class="a" d="M65.24,357v8.213h49.131V357Zm4.9,7.7H66.128V357.5h4.038Zm4.891,0H70.99V357.5h4.038Zm4.881,0H75.871V357.5h4.038Zm4.891,0H80.767V357.5h4.038Zm4.886,0H85.649V357.5h4.038Zm4.891,0H90.54V357.5h4.038Zm4.891,0H95.431V357.5H99.47Zm4.886,0h-4.038V357.5h4.038Zm4.886,0H105.2V357.5h4.038Zm4.886,0H110.09V357.5h4.038Z" transform="translate(-56.396 -211.184)"/><path class="a" d="M65.24,404.34v8.213h49.131V404.34Zm4.9,7.693H66.128V404.86h4.038Zm4.891,0H70.99V404.86h4.038Zm4.881,0H75.871V404.86h4.038Zm4.891,0H80.767V404.86h4.038Zm4.886,0H85.649V404.86h4.038Zm4.891,0H90.54V404.86h4.038Zm4.891,0H95.431V404.86H99.47Zm4.886,0h-4.038V404.86h4.038Zm4.886,0H105.2V404.86h4.038Zm4.886,0H110.09V404.86h4.038Z" transform="translate(-56.396 -234.627)"/><path class="a" d="M65.24,451.7v8.228h49.131V451.7Zm4.9,7.693H66.128v-7.178h4.038Zm4.891,0H70.99v-7.178h4.038Zm4.881,0H75.871v-7.178h4.038Zm4.891,0H80.767v-7.178h4.038Zm4.886,0H85.649v-7.178h4.038Zm4.891,0H90.54v-7.178h4.038Zm4.891,0H95.431v-7.178H99.47Zm4.886,0h-4.038v-7.178h4.038Zm4.886,0H105.2v-7.178h4.038Zm4.886,0H110.09v-7.178h4.038Z" transform="translate(-56.396 -258.081)"/><path class="a" d="M65.24,499.06v8.2h49.131v-8.2Zm4.9,7.693H66.128V499.57h4.038Zm4.891,0H70.99V499.57h4.038Zm4.881,0H75.871V499.57h4.038Zm4.891,0H80.767V499.57h4.038Zm4.886,0H85.649V499.57h4.038Zm4.891,0H90.54V499.57h4.038Zm4.891,0H95.431V499.57H99.47Zm4.886,0h-4.038V499.57h4.038Zm4.886,0H105.2V499.57h4.038Zm4.886,0H110.09V499.57h4.038Z" transform="translate(-56.396 -281.534)"/><path class="a" d="M65.66,546.41c.2.772.419,1.545.651,2.307v-1.792h4.038V554.1h-2.16c.066.167.131.348.2.5h46.193v-8.2Zm9.591,7.693H71.213v-7.178h4.038Zm4.881,0H76.094v-7.178h4.038Zm4.891,0H80.975v-7.178h4.038Zm4.886,0H85.872v-7.178H89.91Zm4.891,0H90.763v-7.178H94.8Zm4.891,0H95.654v-7.178h4.038Zm4.886,0h-4.038v-7.178h4.038Zm4.886,0h-4.038v-7.178h4.038Zm4.886,0h-4.038v-7.178h4.038Z" transform="translate(-56.604 -304.982)"/><path class="a" d="M88.26,593.77c.126.162.247.343.379.5h2.67v3.448c.288.343.57.686.863,1.009v-4.477H96.21v7.2H94.575c.162.167.318.343.5.5h30.706V593.77Zm12.827,7.688H97.048v-7.173h4.038Zm4.891,0H101.94v-7.173h4.038Zm4.891,0h-4.038v-7.173h4.038Zm4.886,0h-4.038v-7.173h4.038Zm4.886,0H116.6v-7.173h4.038Zm4.886,0H121.49v-7.173h4.038Z" transform="translate(-67.796 -328.435)"/><path class="a" d="M141.65,641.12c.459.263.929.5,1.4.767v-.252h4.038v2.272l.858.4v-2.67h4.038V646a1.267,1.267,0,0,0,.242.091V641.12Z" transform="translate(-94.235 -351.884)"/><path class="a" d="M502.612,318.382ZM471.517,467.365Zm-32.443-75.8c.1.323.177.646.268.964h0C439.261,392.207,439.175,391.884,439.074,391.561Zm63.538-73.194ZM197.72,242.78v2.155h22.549V242.78Zm273.8,224.585Zm-32.443-75.8c.1.323.177.646.268.964h0C439.261,392.207,439.175,391.884,439.074,391.561Zm63.538-73.194ZM471.517,467.35Zm-32.443-75.789c.1.323.177.646.268.964h0C439.261,392.207,439.175,391.884,439.074,391.561Z" transform="translate(-122.002 -154.621)"/><path class="c" d="M403.251,329.283s-1.989-.278-1.989-3.175a45.39,45.39,0,0,0-1.424-8.309h0c0-.025-1.232-9.424-2.933-10.919s-3.887-10.267-3.887-10.267-.374-4.76-1.136-5.785-1.792-3.533-3.311-7.112-7.854-6.057-7.854-6.057-11.454-6.643-14.7-8.809h0a4.977,4.977,0,0,1-.823-.621c-.565-.742-3.029-.757-3.029-.757a49.61,49.61,0,0,1-.586-5.184,3.948,3.948,0,0,0-.025-.545,17.466,17.466,0,0,0,7.678-9.5c.061-.192.111-.394.167-.586a1.641,1.641,0,0,0,.984-.888,18.507,18.507,0,0,1,.661-2.019,7.606,7.606,0,0,1,1.868-1.641c1.605-1.363,2.019-3.66,1.943-5.75-.05-1.691-.323-3.4-.217-5.078l.03-.424c.03-.252.066-.5.111-.747.247-1.252.787-2.433,1.09-3.675a4.727,4.727,0,0,0-.373-3.71c-1.035-1.57-3.19-1.883-5.083-2.044-2.145-.182-4.063.056-5.436-1.726a19.381,19.381,0,0,0-2.161-2.61c-.283-.262-3.029-1.938-3.029-2.049a12.271,12.271,0,0,0-8.556-.656c-1.424.414-2.766,1.09-4.21,1.429-3.114.737-6.7-.061-9.344,1.721a10.983,10.983,0,0,0-3.185,4.18q-1.01,1.933-2.049,3.862a25.015,25.015,0,0,0-2.721,6.608,10.486,10.486,0,0,0-.182,1.545h0v.823a2.711,2.711,0,0,0,.03.5c.03.156.025.207.04.313s.04.343.071.5.091.444.151.666c.025.1.061.187.091.278.051.172.111.338.177.5.035.086.071.177.111.262a4.714,4.714,0,0,0,.257.5c.04.071.071.136.111.2a6.7,6.7,0,0,0,.464.676c1.08,1.348,2.67,2.206,3.846,3.468v.565a17.279,17.279,0,0,0,7.865,14.109c0,.192.025.389.035.581a28.883,28.883,0,0,1-.056,4.5,2.12,2.12,0,0,0-1.676-.747,2.416,2.416,0,0,0-.646.056l-.045-.035h0v.045c-1.111.273-2.479,1.429-3.786,4.715,0,0-3.978,4.483-7.006,4.3s-10.7,4.664-10.7,4.664-7.481,4.856-9.086,9.8a69.082,69.082,0,0,1-3.221,8.218l-9.248,19.056h0l-1.706,15.118s.944,6.724.757,7.749,3.882,10.267,3.882,10.267,13.442,23.619,18.935,24.83l.394-.278a3.219,3.219,0,0,0,.742.278l1.131-.8a12.324,12.324,0,0,1-.086,2.665c-.757,2.332.283,17.551,1.605,20.535s.853,42.1.853,42.1l-.187,3.453a1.464,1.464,0,0,0,.045.3l-.045.818.136.071a9.724,9.724,0,0,1-.136,3.286,36.538,36.538,0,0,0-.666,5.795s-3.781,24.169-1.989,29.025,3.316,10.176,3.316,10.176,1.893,6.058.091,7.092-6.926,2.771-5.871,5.3c.959,2.332,4.6,8.581,5.139,9.5l-.045.48-.742,8.041a10.1,10.1,0,0,0,.853,3.069,5.289,5.289,0,0,0,5.4,3.372c.5-.035,1.09-.1,1.656-.172a71.547,71.547,0,0,0,12.266-3.19,5,5,0,0,1-.959-.793h0a2.771,2.771,0,0,1-.843-2.019c.081-1.464-2.66-8.44-3.342-10.156-.106-.247-.162-.389-.162-.389s6.249-6.532,5.209-12.322c0,0-6.916-4.038-4.639-6.254s6.345-8.581,6.345-8.581.187-23.8,0-27.354a29.429,29.429,0,0,1,.348-7.385c.076-.368.167-.727.262-1.08a65.9,65.9,0,0,0,9.51.722c1.161,0,2.342,0,3.533-.071q0,.5.045,1.09c.263,5.9.752,16.234,1.151,20.075.565,5.507,3.69,20.348,3.69,20.348s-5.962,3.826,1.04,13.256c0,0,0,3.417-.464,3.912h0a42.8,42.8,0,0,0-1.2,4.927c-.293,1.777-.414,3.574.061,4.508,1.136,2.231,7.95,2.049,7.95,2.049h0l.167-.03a9.769,9.769,0,0,1,7.213,2.176c2.59,2.08,12.418,1.166,17.738.5,2.085-.262,3.478-.5,3.478-.5a2.019,2.019,0,0,0,.071-.727h0c-.055-1.307-1.08-4.175-8.026-6.734,0,0-6.532-4.392-6.441-8.218H383.9a7.087,7.087,0,0,1,.9,0s-2.559-9.339-1.514-10.1-2.085-11.105-2.085-11.105-1.792-17.365-1.888-18.581a10.6,10.6,0,0,1,.469-3.079l-.469-9.52s-.091-3.165,0-4.195a20.949,20.949,0,0,0-.217-2.67c-.045-.353-.091-.722-.141-1.085,2.448-.621,4.038-1.2,4.038-1.2l-.283-33.139c2.08-4.038,2.463-12.9,2.453-19.182,0-4.038-.182-7.027-.182-7.027l2.842-4.639s.656-5.553-.384-6.769a1.165,1.165,0,0,1,.126-1.59,5.289,5.289,0,0,1,.621-.424s-.03-.045-.066-.111a5.018,5.018,0,0,1,.631-.449s-1.01-1.565-.106-2.226c.848.575,1.605,1.01,2.181,1.363-.04.368-.081.581-.081.581l.242-.5.893.5s4.452-8.869,4.356-10.176,3.029-6.815,3.029-6.815.379-2.892,2.085-4.1,1.323-9.99,1.323-9.99.474-4.573,1.61-6.441S403.251,329.283,403.251,329.283Zm-85.188-3.892.086,2.115-.868-1.4Z" transform="translate(-170.483 -142.428)"/><path class="d" d="M475.272,500.7l-1.09,4.644s-8.733-4.457-10.308-10.121,2.635-7.814,2.635-7.814l8.137,3.448Z" transform="translate(-253.63 -275.765)"/><path class="e" d="M475.272,500.7l-1.09,4.644s-8.733-4.457-10.308-10.121,2.635-7.814,2.635-7.814l8.137,3.448Z" transform="translate(-253.63 -275.765)"/><path class="d" d="M370.327,808.809s-8.077,2.968-13.629,3.342a5.186,5.186,0,0,1-5.3-3.352,10.145,10.145,0,0,1-.833-3.054l.722-8,.384-4.26,11.8-3.064,1.671,5.108.156.389c.671,1.706,3.362,8.647,3.281,10.1a2.756,2.756,0,0,0,.828,1.994,4.8,4.8,0,0,0,.919.8Z" transform="translate(-197.695 -425.819)"/><path class="d" d="M463.431,804.221a2.018,2.018,0,0,1-.071.722s-17.274,2.882-20.807,0a9.359,9.359,0,0,0-7.269-2.13s-6.683.182-7.8-2.019c-.464-.924-.343-2.716-.056-4.483a42.72,42.72,0,0,1,1.171-4.9l.268-.212,1.59-1.277,18.617-.55h.141c-.091,3.806,6.32,8.172,6.32,8.172C462.346,800.066,463.351,802.919,463.431,804.221Z" transform="translate(-235.631 -425.299)"/><path class="e" d="M463.434,811.03a2.059,2.059,0,0,1-.076.722s-17.269,2.882-20.8,0a9.359,9.359,0,0,0-7.264-2.13s-6.688.182-7.8-2.019c-.464-.929-.348-2.716-.061-4.483,2.574.258,6.638.9,8.233,2.428,2.413,2.327,6.5,4.649,9.01,4.831C446.64,810.5,458.386,810.879,463.434,811.03Z" transform="translate(-235.634 -432.108)"/><path class="e" d="M371.149,826.087s-8.077,2.968-13.629,3.342a5.172,5.172,0,0,1-5.29-3.357c2.054.692,4.907,1.418,6.406.752,1.777-.788,8.077-1.3,11.61-1.514A4.971,4.971,0,0,0,371.149,826.087Z" transform="translate(-198.517 -443.097)"/><path class="f" d="M400.276,323.287c-6.663-2.59-15.234-11.146-13.094-15.144a8.945,8.945,0,0,0,.833-3.21,29.317,29.317,0,0,0,.061-4.543,62.217,62.217,0,0,0-.893-7.39s20.8.469,19.591,3.533a11.455,11.455,0,0,0-.313,4.2c.1,1.747.348,3.72.611,5.391.363,2.292.727,4.038.727,4.038s-1.272,1.782-2.019,1.878S409.837,326.977,400.276,323.287Z" transform="translate(-215.66 -179.49)"/><path class="e" d="M365.978,795.917l-.156.172c-6.219-7.521-13.74,1.853-13.74,1.853l-.111-.2.384-4.26,11.8-3.064,1.671,5.108Z" transform="translate(-198.388 -425.819)"/><path class="e" d="M450.63,789.88s-4.543-.1-6.966,2.044-14.134.464-13.629,0a1.662,1.662,0,0,0,.262-.767l1.59-1.277,18.617-.55C450.574,789.668,450.63,789.88,450.63,789.88Z" transform="translate(-237.039 -425.279)"/><path class="g" d="M368.676,663.63a14.04,14.04,0,0,0-.767,2.59,29.632,29.632,0,0,0-.348,7.35c.187,3.534,0,27.213,0,27.213s-3.993,6.315-6.219,8.541,4.543,6.224,4.543,6.224c1.01,5.755-5.108,12.256-5.108,12.256-6.219-7.521-13.74,1.858-13.74,1.858s-4.089-7.067-5.108-9.591,3.993-4.271,5.755-5.3-.086-7.067-.086-7.067-1.489-5.3-3.256-10.126,1.948-28.879,1.948-28.879a37.27,37.27,0,0,1,.651-5.76,9.631,9.631,0,0,0,.136-3.271c-.03-.368-.066-.676-.091-.883s-.045-.3-.045-.3l.071-.121,2.524-4.7S369.887,660.666,368.676,663.63Z" transform="translate(-193.348 -358.094)"/><path class="g" d="M445.277,726.983s-4.543-.1-6.966,2.019-14.134.464-13.629,0,.464-3.9.464-3.9c-6.87-9.379-1.01-13.185-1.01-13.185s-3.069-14.765-3.624-20.242c-.389-3.826-.868-14.109-1.126-19.979-.111-2.524-.177-4.26-.177-4.26l5.613-1.131.722-.146,13.538-2.716s.373,2.524.626,4.589a21.452,21.452,0,0,1,.212,2.66c-.091,1.01,0,4.169,0,4.169l.459,9.475a10.762,10.762,0,0,0-.459,3.064c.091,1.206,1.853,18.48,1.853,18.48s3.064,10.308,2.019,11.05S445.277,726.983,445.277,726.983Z" transform="translate(-231.687 -362.937)"/><path class="e" d="M407.1,296.534a11.456,11.456,0,0,0-.313,4.2A17.289,17.289,0,0,1,388.4,300.4a62.187,62.187,0,0,0-.893-7.4S408.312,293.459,407.1,296.534Z" transform="translate(-215.988 -179.49)"/><path class="f" d="M408.368,260.954a17.1,17.1,0,0,1-.848,5.356,17.274,17.274,0,0,1-33.689-4.942v-.414a17.273,17.273,0,1,1,34.545,0Z" transform="translate(-209.214 -155.066)"/><path class="e" d="M400.276,334.994c-6.663-2.59-15.234-11.146-13.094-15.144a8.945,8.945,0,0,0,.833-3.21l9.122,7.5,5.643,4.629,4.291-10.924c.363,2.292.727,4.038.727,4.038s-1.272,1.782-2.019,1.878S409.837,338.684,400.276,334.994Z" transform="translate(-215.66 -191.197)"/><path class="g" d="M370.485,308.706l-7.617,127.964-9.934.651-25.724-74.2,4.22-88.09.888-18.612,11.438,9.394,5.649,4.629,4.417-11.242,8.213,7.158Z" transform="translate(-162.281 -131.78)"/><path class="e" d="M373.731,663.669a14.048,14.048,0,0,0-.767,2.59,73.192,73.192,0,0,1-20.828-6.507l-.136-.071.045-.813.025-.424,2.524-4.7S374.943,660.706,373.731,663.669Z" transform="translate(-198.403 -358.133)"/><path class="e" d="M424.91,673.915a51.093,51.093,0,0,1-5.583.636c-.111-2.524-.177-4.26-.177-4.26l5.613-1.131Z" transform="translate(-231.657 -365.77)"/><path class="e" d="M445.864,668.079c-3.589.934-9.132,1.984-14.094,1.328l-.071-3.2,13.538-2.716S445.612,665.989,445.864,668.079Z" transform="translate(-237.872 -362.962)"/><path class="e" d="M367.451,497.417c-20.7,3.534-39.651-6.6-39.651-6.6l.182-3.433s.469-38.914-.833-41.9-2.317-18.112-1.58-20.434-2.691-37.142-2.691-37.142l-.555-14.134L302,365.546l9.086-18.94a68.359,68.359,0,0,0,3.16-8.178c1.58-4.917,8.915-9.747,8.915-9.747s7.521-4.826,10.495-4.644,6.87-4.271,6.87-4.271c2.877-7.335,5.482-4.013,5.482-4.013a6.553,6.553,0,0,1-.141,1.085c-1.01,8.051,16.325,33.493,16.572,33.942h0l1.651,40.211,1.671,50.888Z" transform="translate(-173.643 -190.387)"/><path class="d" d="M366.336,497.387c-20.7,3.533-39.656-6.6-39.656-6.6l.187-3.432s.469-38.914-.838-41.9-2.317-18.112-1.575-20.434-2.69-37.142-2.69-37.142l-.56-14.134-20.333-8.263,9.086-18.94a69.416,69.416,0,0,0,3.16-8.178c1.575-4.917,8.914-9.747,8.914-9.747s7.521-4.826,10.49-4.644,6.87-4.27,6.87-4.27c2.882-7.335,6.057-4.013,6.057-4.013,0,.348-.3.5-.141,1.085,2.221,7.809,15.77,33.493,16.017,33.942h0l1.671,40.211,1.671,50.888Z" transform="translate(-173.083 -190.357)"/><path class="e" d="M400.806,353.014c-2.226-.929-14.018-14.392-14.018-14.392v-3.064c-.429-1.01-2.978-.394-5.048.313l.888-18.611,1.01.838C385.849,325.9,400.548,352.565,400.806,353.014Z" transform="translate(-213.131 -191.504)"/><path class="d" d="M401.911,350.8c-2.231-.929-14.023-14.391-14.023-14.391v-3.064c-.429-1.01-2.978-.394-5.048.313l.893-18.612,1.01.838C386.959,323.692,401.664,350.36,401.911,350.8Z" transform="translate(-213.676 -190.41)"/><path class="e" d="M352,517.434c.278,0,14.391-1.484,14.391-1.484s8.546,16.8,7.986,20.893-1.575,7.708-5.013,7.067-18.5.5-18.5.5Z" transform="translate(-197.839 -289.898)"/><path class="d" d="M350.886,515.224c.278,0,14.391-1.484,14.391-1.484s8.541,16.809,7.986,20.893-1.58,7.708-5.013,7.067-18.5.5-18.5.5Z" transform="translate(-197.289 -288.804)"/><path class="f" d="M365.5,501.05s12.953,6.961,13.23,9.086-6.592-.929-8.077-1.3a18.491,18.491,0,0,0-2.973-.464l-9.9.268Z" transform="translate(-201.266 -282.519)"/><circle class="e" cx="1.363" cy="1.363" r="1.363" transform="translate(182.698 159.652)"/><circle class="h" cx="1.363" cy="1.363" r="1.363" transform="translate(182.698 159.097)"/><circle class="e" cx="1.363" cy="1.363" r="1.363" transform="translate(185.206 218.652)"/><circle class="h" cx="1.363" cy="1.363" r="1.363" transform="translate(185.206 218.091)"/><circle class="e" cx="1.363" cy="1.363" r="1.363" transform="translate(184.056 189.152)"/><circle class="h" cx="1.363" cy="1.363" r="1.363" transform="translate(184.056 188.597)"/><path class="d" d="M452.331,417.868s.929,1.393,0,2.044.091,2.226.091,2.226-2.317,1.358-1.3,2.579.374,6.739.374,6.739l-2.786,4.614s.167,2.973.177,6.991c0,6.269-.369,15.083-2.408,19.1l.283,32.968s-9.758,3.564-17.925,2.479l-1.212-52.9s1.767-30,2.418-35.754a59.916,59.916,0,0,0,.464-9.01s-.278-9.005-1.211-13.185c0,0-1.01-18.107-1.111-23.119-.045-2.4.081-9.394.222-16.047.156-7.274.333-14.134.333-14.134L426.9,318.879s1.842-.187,2.4.555a5.317,5.317,0,0,0,.808.621h0c3.18,2.15,14.417,8.763,14.417,8.763s6.219,2.473,7.708,6.017a52.436,52.436,0,0,0,3.246,7.067c.722,1.01,1.116,5.755,1.116,5.755s2.14,8.733,3.811,10.212,2.892,10.888,2.892,10.888l-14.765,11.61s-1.3,19.313-1.575,20.06S452.331,417.868,452.331,417.868Z" transform="translate(-235.495 -192.296)"/><path class="d" d="M452.857,417.71s.924,1.393,0,2.044.086,2.226.086,2.226-2.3,1.373-1.292,2.595.374,6.739.374,6.739l-2.786,4.614s.167,2.973.182,6.991c0,6.269-.368,15.083-2.408,19.1l.278,32.968s-9.773,3.564-17.93,2.479l-1.206-52.9s1.767-30,2.418-35.754a59.353,59.353,0,0,0,.459-9.01s-.278-9.005-1.206-13.185c0,0-1.01-18.107-1.116-23.119-.045-2.4.086-9.394.222-16.047.156-7.274.333-14.134.333-14.134L426.83,318.54s2.433,0,2.993.752a4.79,4.79,0,0,0,.808.621h0c3.18,2.15,14.422,8.763,14.422,8.763s6.214,2.473,7.7,6.017a51.61,51.61,0,0,0,3.251,7.067c.727,1.01,1.111,5.755,1.111,5.755s2.14,8.733,3.811,10.212,2.877,10.868,2.877,10.868L449.041,380.2s-1.3,19.313-1.58,20.06S452.857,417.71,452.857,417.71Z" transform="translate(-235.46 -192.138)"/><path class="e" d="M435.724,338.685l1.333,3.887-7.017,7.067c.156-7.269.333-14.134.333-14.134L427.94,320.73s2.433,0,2.993.752a4.6,4.6,0,0,0,.808.616h0l5.967,17.213Z" transform="translate(-236.01 -193.223)"/><path class="d" d="M434.614,336.475l1.338,3.887-7.017,7.067c.156-7.274.333-14.134.333-14.134L426.83,318.52s2.438,0,2.993.752a5.049,5.049,0,0,0,.808.621h0L436.6,337.1Z" transform="translate(-235.46 -192.128)"/><path class="e" d="M408.368,260.954a17.1,17.1,0,0,1-.848,5.356.722.722,0,0,1-.545-.136c-.131-4.543-2.367-8.809-5.119-12.438a13.068,13.068,0,0,0-2.776-2.877,5.432,5.432,0,0,0-3.766-1.065c-1.514.207-2.852,1.237-4.382,1.368-2.019.167-3.826-1.232-5.83-1.3a5.729,5.729,0,0,0-4.286,1.989,11.756,11.756,0,0,0-2.3,4.26,24.927,24.927,0,0,0-1.282,7.35c-.025,1.413-.162,3.185-1.474,3.7a7.542,7.542,0,0,0-1.9-5.76l-.03-.03v-.414a17.273,17.273,0,1,1,34.545,0Z" transform="translate(-209.214 -155.066)"/><path class="i" d="M393.076,222.46a11.892,11.892,0,0,0-8.39-.656c-1.4.414-2.716,1.085-4.134,1.424-3.029.732-6.562-.061-9.162,1.711a10.957,10.957,0,0,0-3.12,4.154l-2.019,3.846a24.959,24.959,0,0,0-2.67,6.562,8.379,8.379,0,0,0,1.287,6.774c1.07,1.358,2.65,2.211,3.811,3.488a7.572,7.572,0,0,1,1.9,5.755c1.318-.5,1.444-2.282,1.474-3.7a24.925,24.925,0,0,1,1.282-7.35,11.716,11.716,0,0,1,2.3-4.26,5.74,5.74,0,0,1,4.286-1.989c2.019.071,3.831,1.464,5.83,1.3,1.514-.126,2.857-1.161,4.382-1.363a5.412,5.412,0,0,1,3.766,1.065,12.933,12.933,0,0,1,2.771,2.877c2.756,3.629,4.992,7.885,5.124,12.438.57.419,1.393-.126,1.676-.772a18.449,18.449,0,0,1,.651-2.019,7.447,7.447,0,0,1,1.827-1.625c1.575-1.358,1.969-3.645,1.908-5.719s-.464-4.18-.071-6.219c.237-1.252.772-2.423,1.065-3.66a4.785,4.785,0,0,0-.363-3.69c-1.01-1.565-3.135-1.873-4.987-2.019-2.1-.182-3.988.051-5.331-1.721a19.331,19.331,0,0,0-2.12-2.595C395.777,224.237,393.076,222.571,393.076,222.46Z" transform="translate(-204.038 -143.998)"/><path class="e" d="M306.706,424.883l-5.275-9.753-1.671,15.048s.929,6.683.742,7.708,3.806,10.212,3.806,10.212,13.19,23.493,18.576,24.7l18.2-13-4.826-6.128s-1.671-.651-2.09,0c0,0-8.96-15.416-9.889-16.532s-.747-3.342-.747-3.342-1.393-1.484-.929-2.877-2.691-6.224-2.691-6.224l2.877-2.691Z" transform="translate(-172.533 -239.971)"/><path class="d" d="M300.614,412.93l-1.393,1.111-1.671,15.048s.929,6.683.742,7.708,3.811,10.212,3.811,10.212,13.185,23.493,18.571,24.7l18.2-13-4.831-6.128s-1.671-.651-2.09,0c0,0-8.96-15.416-9.889-16.532s-.742-3.342-.742-3.342-1.393-1.484-.929-2.877-2.7-6.224-2.7-6.224l2.877-2.691Z" transform="translate(-171.439 -238.881)"/><path class="e" d="M464.559,520.89c1.01,1.227.374,6.734.374,6.734l-2.786,4.614s.167,2.978.177,6.991l-4.684,1.464a2.781,2.781,0,0,1-3.609-2.741l.808-26.052,10.929,4.18c-.929.646.091,2.231.091,2.231S463.539,519.664,464.559,520.89Z" transform="translate(-248.929 -287.892)"/><path class="d" d="M465.664,519.785c1.01,1.227.373,6.739.373,6.739l-2.786,4.614s.167,2.973.182,6.991l-4.77,1.489a2.726,2.726,0,0,1-3.534-2.686l.813-26.133,10.934,4.18c-.934.646.086,2.226.086,2.226S464.654,518.564,465.664,519.785Z" transform="translate(-249.473 -287.348)"/><path class="f" d="M474.593,500.012s-.742,4.74-2.6,5.018-2.691,7.668-4.543,7.405-.626-6.87-.56-8.152-2.019-6.593-.459-7.8,6.5,0,6.5,0Z" transform="translate(-254.783 -279.993)"/><path class="e" d="M476.676,424.757l3.5-7.067a45.88,45.88,0,0,1,1.393,8.263c0,2.877,1.948,3.16,1.948,3.16s2.135,2.524,1.01,4.361-1.58,6.411-1.58,6.411.368,8.728-1.3,9.934-2.019,4.089-2.019,4.089-3.069,5.477-2.973,6.779-4.271,10.121-4.271,10.121,2.135-10.959-10.308-15.694c0,0-.1-3.72.833-4.74s2.378-1.484,1.469-6.638-.263-11.312-.263-12.549,2.786-8.95,2.786-8.95Z" transform="translate(-252.914 -241.238)"/><path class="d" d="M479.225,415.69l3.059,1.01a45.731,45.731,0,0,1,1.4,8.263c0,2.877,1.948,3.16,1.948,3.16s2.135,2.524,1.01,4.361-1.575,6.411-1.575,6.411.368,8.728-1.3,9.934-2.044,4.089-2.044,4.089-3.064,5.477-2.968,6.779-4.276,10.121-4.276,10.121,2.14-10.959-10.308-15.694c0,0-.091-3.72.838-4.74s2.378-1.484,1.469-6.638-.262-11.312-.262-12.549,2.786-8.95,2.786-8.95Z" transform="translate(-253.949 -240.248)"/><path class="e" d="M360.15,776.943s4.876-3.064,8.077-.838S360.15,776.943,360.15,776.943Z" transform="translate(-202.439 -418.328)"/><path class="e" d="M435.21,759.763a9.871,9.871,0,0,1,7.94,3.347C446.775,767.012,435.21,759.763,435.21,759.763Z" transform="translate(-239.61 -410.624)"/><g class="j" transform="translate(159.343 88.422)"><path d="M413.035,264.425a7.488,7.488,0,0,0-1.832,1.63,18.474,18.474,0,0,0-.646,2.019c-.283.656-1.105,1.191-1.676.777-.131-4.543-2.373-8.809-5.124-12.443a12.934,12.934,0,0,0-2.771-2.877,5.427,5.427,0,0,0-3.771-1.065c-1.514.207-2.847,1.237-4.376,1.363-2.019.172-3.831-1.227-5.835-1.3a5.714,5.714,0,0,0-4.281,1.994,11.691,11.691,0,0,0-2.3,4.255,24.957,24.957,0,0,0-1.282,7.35c-.03,1.408-.162,3.165-1.464,3.69a6.9,6.9,0,0,1,0,1.121c1.312-.5,1.444-2.282,1.474-3.7a24.927,24.927,0,0,1,1.282-7.35,11.716,11.716,0,0,1,2.3-4.26,5.729,5.729,0,0,1,4.281-1.989c2.019.071,3.836,1.464,5.835,1.3,1.514-.126,2.857-1.161,4.376-1.363A5.426,5.426,0,0,1,401,254.647a12.933,12.933,0,0,1,2.771,2.877c2.751,3.629,4.992,7.885,5.124,12.438.57.419,1.393-.126,1.676-.772a19.582,19.582,0,0,1,.646-2.019,7.469,7.469,0,0,1,1.832-1.625c1.575-1.358,1.969-3.645,1.908-5.719v-.192A6.627,6.627,0,0,1,413.035,264.425Z" transform="translate(-370.464 -247.827)"/><path d="M368.693,268c-1.161-1.277-2.746-2.13-3.811-3.483a7.39,7.39,0,0,1-1.469-4.134,7.774,7.774,0,0,0,1.469,5.245c1.065,1.358,2.65,2.211,3.811,3.488a7.572,7.572,0,0,1,1.9,4.5A7.572,7.572,0,0,0,368.693,268Z" transform="translate(-363.385 -251.758)"/><path d="M452.254,244.3c-.3,1.237-.828,2.413-1.07,3.66a11.657,11.657,0,0,0-.156,2.524,9.806,9.806,0,0,1,.156-1.434c.242-1.252.772-2.423,1.07-3.66a6.21,6.21,0,0,0,.167-2.09A7.015,7.015,0,0,1,452.254,244.3Z" transform="translate(-406.78 -243.3)"/></g><ellipse class="a" cx="49.186" cy="7.9" rx="49.186" ry="7.9" transform="translate(17.572 363.339)"/><rect class="k" width="3.165" height="71.261" transform="translate(65.178 219.904)"/><path class="h" d="M180.385,639.766l-.2,3.21-.283,4.543-.116,1.888-.278,4.543-.121,1.888-.283,4.543-3.19,51.524a8.733,8.733,0,0,1-8.713,8.188H150.618a8.728,8.728,0,0,1-8.708-8.188l-3.175-51.559-.283-4.543-.116-1.888-.283-4.543-.116-1.888-.283-4.543-.2-3.21a4.543,4.543,0,0,1,4.543-4.8h33.927a4.513,4.513,0,0,1,4.462,4.836Z" transform="translate(-92.153 -348.819)"/><path class="l" d="M133.134,592.24l-.283,4.528H90.863l-.283-4.528Z" transform="translate(-45.099 -298.082)"/><path class="l" d="M133.126,604.95l-.278,4.533h-41.2l-.283-4.533Z" transform="translate(-45.49 -304.376)"/><path class="l" d="M133.118,617.68l-.278,4.528h-40.4l-.283-4.528Z" transform="translate(-45.881 -310.68)"/><path class="m" d="M88.385,542.854c18.43,13.337,26.123,34.194,26.123,34.194s-22.211-.762-40.645-14.1S47.75,528.76,47.75,528.76,69.951,529.517,88.385,542.854Z" transform="translate(-47.735 -296.242)"/><path class="n" d="M47.72,528.76s23.059,12.8,30.454,23.392,36.319,24.9,36.319,24.9" transform="translate(-47.72 -296.242)"/><path class="m" d="M130.12,495.933c10.03,7.254,14.225,18.606,14.225,18.606s-12.09-.414-22.125-7.668S108,488.26,108,488.26,120.085,488.674,130.12,495.933Z" transform="translate(-77.571 -276.186)"/><path class="n" d="M108,488.26s12.549,6.966,16.572,12.731,19.773,13.548,19.773,13.548" transform="translate(-77.571 -276.186)"/><path class="m" d="M195.152,522.838c-11.524,12.665-13.962,29.217-13.962,29.217s16.249-3.988,27.763-16.658,13.962-29.217,13.962-29.217S206.677,510.173,195.152,522.838Z" transform="translate(-113.816 -285.06)"/><path class="n" d="M222.926,506.19s-15.012,12.983-18.829,21.928S181.19,552.06,181.19,552.06" transform="translate(-113.816 -285.065)"/><path class="o" d="M935.765,398.3s-8.334-41.463-5.144-46.622c0,0,.116-4.8-.076-10.908v-.7a15.528,15.528,0,0,0,1.752,1.01,14.174,14.174,0,0,0,9.54,1.232l-2.524-2.812a4.66,4.66,0,0,1-1.368-2.287,4.791,4.791,0,0,1,.545-2.473c2.4-6.057,2.524-13.675-2.095-18.3-3.9-3.887-4.851-8.9-9.086-12.453-3.094-2.6-4.8-6.411-6.4-10.1a56.771,56.771,0,0,1-3.5-9.556c-.606-2.579-.848-5.25-1.681-7.769a9.889,9.889,0,0,0-4.831-6.093,18.235,18.235,0,0,1-2.625-1.156,11.338,11.338,0,0,1-2.418-2.842c-3.821-5.048-16.618-2.075-22.675-.025a12.755,12.755,0,0,0-4.482,2.484l.055-.091c.045-.076.1-.151.151-.227a7.966,7.966,0,0,0-1.7,1.893,45.4,45.4,0,0,0-1.989,4.543c-.888,1.792-5.83,6.794-3.705,8.809a1.791,1.791,0,0,0,.5.323,4.366,4.366,0,0,0,2.524.252l-.091.217a14.754,14.754,0,0,0-1.1,5.6,15.151,15.151,0,0,0,15.285,15.017,15.432,15.432,0,0,0,4.679-.722c.036.192.066.384.1.575a1.772,1.772,0,0,0,.035.227h0l-.268.374a.513.513,0,0,0-.045-.066l-7.925,11.075c-1.211.853-8.188,5.9-8.581,9.687-.414,4.144-.828,9-.828,9l-.055,1.04a3.12,3.12,0,0,1-2.524.681c-2.474-.4-2.474,9.086-2.474,9.086s-1.646,1.514-2.776.2-4.119,3.135-4.119,3.135l-18.728.808h0l-.429.025-1.009-3.125a1.318,1.318,0,0,0-1.651-.843,1.518,1.518,0,0,0-.227.1l-.071.04-.131.091-.066.061a1.01,1.01,0,0,0-.1.106l-.061.071-.03.03h0a1.272,1.272,0,0,0-.182,1.131l.868,2.68c-3.614.727-7.309,2.776-4.3,8.42l-15.275-2.822,4.942,4.149,25.512,5.265c-.338.606-.116,1.484.939,2.721,4.543,5.336,12.822,6.784,16.153,7.158a28.678,28.678,0,0,0,3.276,5.553L873,386.485s-8.435,40.514-9.98,42.569a24,24,0,0,0,2.135-2.812c-2.448,8.324-5.871,19.717-6.769,21.423-1.444,2.726-2.781,13.755-1.136,14.462a13.85,13.85,0,0,0,4.008-.045V463l-.091,34.623s.414,21.236-.722,23.261-1.439,6.269-1.439,6.269-4.543,8.374-8.142,11.741a.549.549,0,0,1-.081.071l-.111-.787s-4.326,5.462-13.9,5.154c0,0-5.76,3.746,2.781,3.948s19.45-.3,19.45-.3,7.617-11.61,14-10.1v8.8h1.954v-8.94a8.012,8.012,0,0,0,3.478-5.265,6.4,6.4,0,0,0-2.282-5.921,3.786,3.786,0,0,1-1.247-2.766l-.071.061a5.352,5.352,0,0,0-.066-.545c-.56-4.543-1.262-13.917,1.216-20.853,3.4-9.51,4.427-22.756,1.954-30.641a70.4,70.4,0,0,1-1.964-7.678c-.061-.328-.116-.641-.167-.934a39.792,39.792,0,0,1,5.013,1.01c5.729,1.58,18.263,1.873,28.965,1.787.025.293.056.6.091.909a33.056,33.056,0,0,0,1.191,6.32c1.343,4.038,1.959,21.842,1.959,21.842s1.731,14.639.787,20.6c-.5,3.311-1.01,6.638-1.3,9.98v.066s-2.837,8.077-4.912,12.463c-.051.111-.106.222-.156.328a6.559,6.559,0,0,0-1.62.358s-2.781,5.553-5.553,6.471-1.853,3.942,4.422,2.832,15.75-2.019,15.75-2.019l.409-5.664,1.928-2.413-.5,5.649,2.055-.4-.273-6.87,3.155-3.947s3.811-3.392-1.853-10.066v.146c-.061-.1-.116-.2-.182-.293v-.03c-.939-1.454-1.686-4.165-.318-8.975,2.473-8.692,3.912-16.582,3.912-16.582s5.522-21.135-1.116-31.135h.293a16.811,16.811,0,0,1-1.429-4.442q-.05-.273-.091-.56a36.424,36.424,0,0,0,13.665-3.089C940.09,456.439,937.723,406.283,935.765,398.3Zm-62.356-34.982v.1l-1.01.051Zm-3.463.48a1.116,1.116,0,0,0-.454.217,4.482,4.482,0,0,0-.792,2.075l-1.575-.353s-1.105-.237-2.7-.5l-.752-.757C865.745,364.3,867.9,364.048,869.945,363.8Z" transform="translate(-431.386 -164.977)"/><path class="p" d="M971.921,742.54l-.6,7.153,2.014-.4-.3-7.759Z" transform="translate(-481.252 -372.013)"/><path class="q" d="M901.777,692.871c-2.428,6.916-1.742,16.249-1.2,20.782.2,1.676.389,2.7.389,2.7s-3.629,8.268-3.932,8.581-10.681,6.648-10.681,6.648l-7.254,4.235s-7.36-3.226-3.831-4.336a5.358,5.358,0,0,0,1.9-1.3c3.533-3.357,7.971-11.7,7.971-11.7s.3-4.235,1.413-6.249.707-23.18.707-23.18l.086-34.5v-4.5l13.806.1a31.25,31.25,0,0,0,.6,4.543,69.444,69.444,0,0,0,1.923,7.653C906.108,670.216,905.1,683.4,901.777,692.871Z" transform="translate(-457.06 -356.306)"/><path class="e" d="M900.969,778.755s-3.629,8.268-3.932,8.581-10.681,6.648-10.681,6.648L879.1,798.22s-7.36-3.226-3.831-4.336a5.357,5.357,0,0,0,1.9-1.3l.313,2.206,2.418-.1,20.7-18.622C900.783,777.736,900.969,778.755,900.969,778.755Z" transform="translate(-457.06 -418.713)"/><path class="p" d="M888.138,777l-20.812,18.748-2.418.1-.5-3.534s-4.23,5.442-13.629,5.139c0,0-5.643,3.73,2.721,3.932s19.046-.3,19.046-.3,7.461-11.61,13.7-10.1v8.768h1.918v-8.849a7.97,7.97,0,0,0,3.4-5.25,6.431,6.431,0,0,0-2.226-5.9,3.8,3.8,0,0,1-1.2-2.761Z" transform="translate(-444.48 -419.173)"/><path class="q" d="M1005.16,703.284c-1.343,4.8-.611,7.5.308,8.945v.03a16.534,16.534,0,0,1,2.413,5.891l.081.454-9.47,13.806-5.139,2.019s-8.263-2.822-6.754-3.629a7.736,7.736,0,0,0,1.646-2.7c2.019-4.366,4.806-12.423,4.806-12.423v-.066c.293-3.327.757-6.643,1.272-9.944.924-5.941-.772-20.525-.772-20.525s-.606-17.733-1.918-21.766a33.284,33.284,0,0,1-1.176-6.28c-.273-2.524-.333-4.6-.333-4.6s5.442-7.572,15.416.606a10.975,10.975,0,0,1,2.085,2.261c6.89,9.8,1.343,31.4,1.343,31.4S1007.578,694.617,1005.16,703.284Z" transform="translate(-512.574 -355.937)"/><path class="e" d="M1007.992,780.217l-9.47,13.806-5.139,2.019s-8.263-2.822-6.754-3.629a7.734,7.734,0,0,0,1.646-2.7c3.5-.03,5.31,3.3,5.31,3.3l4.432-.707s5.845-11.489,7.158-12.191.2-5.245.2-5.245V773.72c.035.04.066.086.106.126v.03a16.528,16.528,0,0,1,2.413,5.891Z" transform="translate(-512.589 -417.549)"/><path class="p" d="M987.2,793.6s-2.524-4.634-7.36-2.923c0,0-2.721,5.553-5.442,6.451s-1.812,3.927,4.336,2.822,15.416-2.019,15.416-2.019l.4-5.648,6.249-7.96s3.725-3.377-1.817-10.025v1.156s1.11,4.543-.2,5.245-7.138,12.2-7.138,12.2Z" transform="translate(-505.905 -417.836)"/><path class="e" d="M913.961,650.131a31.244,31.244,0,0,0,.6,4.543,63.324,63.324,0,0,0-14.417-.146v-4.5Z" transform="translate(-469.849 -356.296)"/><path class="e" d="M1011.841,656.617s-8.077.394-17.708.474c-.273-2.524-.333-4.6-.333-4.6s5.442-7.572,15.416.606a10.968,10.968,0,0,1,2.085,2.261A12.353,12.353,0,0,0,1011.841,656.617Z" transform="translate(-516.231 -355.932)"/><path class="p" d="M960.889,568.964s-35.375,1.711-46.158-1.312-21.469-.4-23.079-1.105-.3-11.691,1.111-14.412S901.93,521.9,901.93,521.9L909.39,483l7.86-2.166.555-.156L931.5,476.9l10.035-2.771s19.954,77.9,18.243,83.648a14.709,14.709,0,0,0-.293,6.759A16.872,16.872,0,0,0,960.889,568.964Z" transform="translate(-465.278 -269.188)"/><path class="r" d="M872.352,439s-7.067,7.572-1.716,11.792,8.869.4,8.869.4Z" transform="translate(-454.247 -251.791)"/><path class="e" d="M872.352,439s-7.067,7.572-1.716,11.792,8.869.4,8.869.4Z" transform="translate(-454.247 -251.791)"/><path class="q" d="M974.278,326.84s-.828.787-2.075,1.949c-1.777,1.661-4.407,4.089-6.739,6.123-3.231,2.812-5.9,4.876-4.942,3.115s.772-4.831.3-7.7c-.035-.192-.066-.384-.1-.57a52.915,52.915,0,0,0-1.56-6.239,107.967,107.967,0,0,1,8.107-9.4c1.075-1.01,1.827-1.424,1.873-.722a23.452,23.452,0,0,0,1.635,5.24c.025.071.05.136.081.207.586,1.514,1.247,3.069,1.827,4.412C973.572,325.305,974.278,326.84,974.278,326.84Z" transform="translate(-499.077 -189.413)"/><path class="e" d="M970.856,318.84a14.982,14.982,0,0,1-10.035,11.489,52.517,52.517,0,0,0-1.661-6.81s9.828-12.7,9.98-10.126A24.016,24.016,0,0,0,970.856,318.84Z" transform="translate(-499.077 -189.419)"/><path class="e" d="M941.969,352.242l1.272-1.792s.843,5.139,3.942,2.872,3.251,17.057,3.251,17.057l-3.326,49.737-24.038-1.439.682-24.033,2.721-12.115,6.729-17.612,4-5.82Z" transform="translate(-481.204 -207.94)"/><path class="p" d="M950.449,370.964l-3.029,44.971L947.1,420.7l-13.4-.8-.5-.03-10.1-.606.681-24.038,2.721-12.115,6.729-17.612,4-5.82L942,352.8l1.272-1.787s.843,5.139,3.942,2.872l.066-.045h0C950.308,351.919,950.449,370.964,950.449,370.964Z" transform="translate(-481.219 -208.218)"/><path class="d" d="M899.95,406.26s-1.206,2.524-3.629,2.115-2.418,9.086-2.418,9.086-1.61,1.514-2.721.2-4.038,3.125-4.038,3.125L868.8,421.6s8.162,3.73,6.562,15.017c0,0,27.713-1.716,28.621-4.336S899.95,406.26,899.95,406.26Z" transform="translate(-454.329 -235.578)"/><path class="s" d="M899.95,406.26s-1.206,2.524-3.629,2.115-2.418,9.086-2.418,9.086-1.61,1.514-2.721.2-4.038,3.125-4.038,3.125L868.8,421.6s8.162,3.73,6.562,15.017c0,0,27.713-1.716,28.621-4.336S899.95,406.26,899.95,406.26Z" transform="translate(-454.329 -235.578)"/><path class="d" d="M777.66,389.76l4.836,4.129,39.807,8.364-4.937-5.038Z" transform="translate(-385.349 -197.811)"/><path class="d" d="M932.388,352.52c-.661,1.01-2.554,6.179-4.134,10.691-1.317,3.761-2.418,7.067-2.418,7.067s-2.569,16.729-3.882,19.752-.6,14.816-.6,14.816l-4.891,29.121s-2.216,15.017-5.638,23.987c-3.377,8.829-7.138,12.968-7.254,13.1,1.514-2.049,9.768-42.4,9.768-42.4l2.726-50.893s.4-4.836.8-8.97,8.581-9.778,8.581-9.778l7.885-11.211C934.125,348.86,933.595,350.708,932.388,352.52Z" transform="translate(-471.548 -206.628)"/><path class="q" d="M901.985,475.768s-11.61-.5-17.233-7.259,13-2.7,13-2.7l4.841,1.111Z" transform="translate(-461.705 -264.471)"/><path class="e" d="M985.618,499.5a14.707,14.707,0,0,0-.293,6.759c-12.665.9-26.214-2.524-26.214-2.524-2.524,2.322-9.172,5.745-9.172,5.745l-3.624-44.926c-2.317-6.057-3.226-37.793-3.226-37.793s.207-1.661.5-4.149a.479.479,0,0,1,.025-.187c.9-6.951,2.7-20,3.574-21.761,1.212-2.423-3.725-8.869-3.725-8.869l2.246-19.157.273-2.312c4.735-2.115,8.364-8.869,8.364-8.869l2.786-4.881h0c3.029-1.943,3.185,17.1,3.185,17.1l-3.029,44.971,10.035-2.771S987.33,493.754,985.618,499.5Z" transform="translate(-491.119 -210.904)"/><path class="d" d="M999.211,490.8c-13.806,6.855-38.9.5-38.9.5-2.524,2.322-9.172,5.744-9.172,5.744l-3.629-44.926c-2.312-6.057-3.221-37.793-3.221-37.793s2.918-23.68,4.129-26.1a3.888,3.888,0,0,0-.237-2.887,36.536,36.536,0,0,1-2.211-16.905l.969-8.233.268-2.307c4.74-2.12,8.369-8.874,8.369-8.874L958.1,344.6l4.644-8.147,2.2-3.857.374.338,2.852,2.585,3.029,2.524c3.953,3.332,10.782,9.2,14.306,12.786,3.1,3.16,4.079,15.452,4.361,24.7.187,6.093.076,10.868.076,10.868-3.125,5.144,5.048,46.44,5.048,46.44C996.894,440.826,999.211,490.8,999.211,490.8Z" transform="translate(-491.713 -199.101)"/><path class="s" d="M958.914,364.242s-9.475,18.036-8.374,24.891,4.23,14.614,2.721,16.426a5.577,5.577,0,0,1-4.437,2.216c-1.514.1-5.553,2.923-5.553,3.226s-3.73.3-7.067,1.716a44,44,0,0,1-8.263,2.216s-9.591-.3-10.484.606-1.812,6.345.1,10.681,4.038,7.572,5.644,8.162,11.792-2.822,20.055-3.629,17.233-7.355,17.233-7.355,9.879-3.534,11.61-9.475-2.115-38.6-2.115-38.6S967.077,360.107,958.914,364.242Z" transform="translate(-477.918 -214.417)"/><path class="s" d="M956.529,361.243s-9.475,18.041-8.364,24.891,4.23,14.614,2.716,16.431a5.552,5.552,0,0,1-4.432,2.216c-1.514.1-5.553,2.923-5.553,3.226s-3.73.3-7.067,1.711a44.431,44.431,0,0,1-8.263,2.216s-9.591-.3-10.479.606-1.817,6.35.1,10.681,4.038,7.572,5.644,8.162,11.792-2.822,20.055-3.624,17.233-7.36,17.233-7.36,9.874-3.533,11.585-9.47-2.115-38.6-2.115-38.6S964.691,357.114,956.529,361.243Z" transform="translate(-476.743 -212.933)"/><path class="d" d="M958.334,362.448s-9.475,18.041-8.364,24.891,4.23,14.614,2.721,16.426a5.553,5.553,0,0,1-4.437,2.221c-1.514.1-5.553,2.923-5.553,3.221s-3.725.3-7.067,1.716a44.1,44.1,0,0,1-8.263,2.216s-9.591-.3-10.484.606-1.812,6.35.1,10.681,4.038,7.572,5.644,8.162,11.792-2.822,20.055-3.629,17.233-7.355,17.233-7.355,9.879-3.534,11.61-9.475-2.09-38.6-2.09-38.6S966.492,358.339,958.334,362.448Z" transform="translate(-477.635 -213.533)"/><path class="e" d="M994.2,458.558s-7.572-1.514-4.937,1.01,2.62,4.735,5.845,4.634S994.2,458.558,994.2,458.558Z" transform="translate(-513.709 -261.254)"/><path class="e" d="M1024.063,566.58s-3.422,2.317,3.125,7.658S1024.063,566.58,1024.063,566.58Z" transform="translate(-530.775 -314.971)"/><path class="e" d="M1011.856,604.31c0,.3-1.212,11.105,3.322,13.806S1011.856,604.31,1011.856,604.31Z" transform="translate(-525.1 -333.655)"/><path class="q" d="M860.98,436.59c-3.655.126-11.549,1.242-7.456,8.879,3.619,6.759,9.7,2.241,13.124-1.186A12.9,12.9,0,0,0,860.98,436.59Z" transform="translate(-446.196 -250.598)"/><path class="q" d="M881.39,451Z" transform="translate(-460.564 -257.734)"/><path class="q" d="M880.74,451.557l.151-.157Z" transform="translate(-460.242 -257.932)"/><path class="e" d="M973.8,338.647c-3.877,2.65-7.128,4.886-7.764,5.351-1.737,1.287-5.048,8.844-7.183,12.7-1.7,3.1-7.229,3.9-9.313,4.1l.268-2.307c4.74-2.12,8.369-8.874,8.369-8.874l9.369-16.426,3.225,2.933Z" transform="translate(-494.313 -199.393)"/><path class="t" d="M973.8,338.047c-3.877,2.65-7.128,4.886-7.764,5.356-1.737,1.282-5.048,8.839-7.183,12.7-1.7,3.1-7.229,3.9-9.313,4.1l.268-2.307c4.74-2.12,8.369-8.874,8.369-8.874l9.369-16.426,3.225,2.923S971.983,336.512,973.8,338.047Z" transform="translate(-494.313 -199.096)"/><path class="q" d="M953.442,303.233a14.972,14.972,0,1,1-12.728-14.8A14.949,14.949,0,0,1,953.442,303.233Z" transform="translate(-481.415 -177.144)"/><path class="e" d="M980.636,353.586a13.308,13.308,0,0,1-4.831-5.189c-.843-1.666-1.4-3.589-2.842-4.77-1.3-1.06-3.029-1.318-4.644-1.792-5.31-1.57-9.763-6.416-9.929-11.948-.081-2.6.732-5.2.363-7.784a8.623,8.623,0,0,0-1.686-4.013,13.842,13.842,0,0,0-1.459-1.57c-.707-.666-1.449-1.312-2.095-2.019a7.845,7.845,0,0,1-1.06-1.439,6.914,6.914,0,0,1-.58-1.338c-1.01-3.089-.091-6.754-1.2-9.879l-.061-.172a3.214,3.214,0,0,0-2.458-2.307c-1.186-.086-2.2.9-3.331,1.338-2.367.919-4.922-.646-6.9-2.241s-4.2-3.417-6.709-3.064c-1.661.237-2.973,1.368-4.5,1.954a6.307,6.307,0,0,1-1.065.308,14.967,14.967,0,0,1,28.859,5.578,14.816,14.816,0,0,1-.328,3.125c.025.071.05.136.081.207.586,1.514,1.247,3.069,1.827,4.412l2.852,2.585,3.029,2.524c3.953,3.332,10.782,9.2,14.306,12.786C979.375,332.046,980.344,344.333,980.636,353.586Z" transform="translate(-482.482 -177.144)"/><path class="u" d="M923.345,276.859c.722-1.469,1.08-3.115,1.943-4.508a10.74,10.74,0,0,1,5.749-4.094c5.931-2.044,18.465-5.013,22.211,0a10.928,10.928,0,0,0,2.367,2.827,17.571,17.571,0,0,0,2.569,1.156c2.388,1.121,3.912,3.564,4.725,6.057s1.055,5.169,1.651,7.738a56.918,56.918,0,0,0,3.432,9.525c1.57,3.665,3.236,7.466,6.264,10.055,4.134,3.534,5.048,8.536,8.884,12.413,4.543,4.6,4.4,12.2,2.055,18.233a5.006,5.006,0,0,0-.535,2.463A4.83,4.83,0,0,0,986,341.008l2.484,2.8a13.965,13.965,0,0,1-15.26-7.037c-.843-1.666-1.4-3.584-2.847-4.77-1.292-1.06-3.029-1.312-4.639-1.787-5.31-1.575-9.763-6.426-9.929-11.958-.081-2.6.732-5.2.363-7.774a8.582,8.582,0,0,0-1.691-4.038c-1.388-1.812-3.483-3.029-4.614-5.048-1.913-3.377-.459-7.764-1.837-11.388a3.221,3.221,0,0,0-2.458-2.307c-1.186-.086-2.2.9-3.337,1.338-2.362.919-4.917-.641-6.89-2.241s-4.2-3.417-6.714-3.059c-1.661.232-2.968,1.363-4.5,1.954-1.131.434-3.423.823-4.412-.131C917.631,283.638,922.472,278.656,923.345,276.859Z" transform="translate(-479.289 -165.873)"/><path class="e" d="M974.52,339.924c-.848-1.666-1.4-3.584-2.847-4.765-1.292-1.06-3.029-1.317-4.644-1.792-5.305-1.57-9.758-6.421-9.929-11.953-.081-2.6.732-5.2.368-7.779a8.631,8.631,0,0,0-1.691-4.013c-1.393-1.812-3.488-3.029-4.614-5.048-1.913-3.372-.459-7.759-1.842-11.388a3.231,3.231,0,0,0-2.453-2.307c-1.181-.091-2.206.9-3.337,1.343-2.362.919-4.922-.646-6.89-2.241s-4.2-3.417-6.714-3.064c-1.661.237-2.973,1.368-4.5,1.954-1.131.434-3.428.828-4.417-.126-2.08-2.019,2.761-6.991,3.629-8.778a48.328,48.328,0,0,1,1.948-4.508c.045-.076.1-.151.146-.227a8.015,8.015,0,0,0-1.661,1.888,49.069,49.069,0,0,0-1.943,4.508c-.873,1.787-5.714,6.774-3.629,8.778,1.01.959,3.281.565,4.412.131,1.514-.591,2.837-1.721,4.5-1.954,2.524-.358,4.745,1.464,6.714,3.059s4.543,3.16,6.9,2.241c1.131-.439,2.12-1.429,3.332-1.338a3.214,3.214,0,0,1,2.458,2.307c1.378,3.624-.076,8.011,1.837,11.388,1.131,1.984,3.226,3.226,4.614,5.048a8.582,8.582,0,0,1,1.691,4.038c.368,2.574-.444,5.174-.364,7.774.167,5.553,4.619,10.383,9.929,11.958,1.6.475,3.347.727,4.639,1.787,1.449,1.186,2.019,3.1,2.847,4.77a13.965,13.965,0,0,0,15.26,7.037l-1.171-1.323A14.116,14.116,0,0,1,974.52,339.924Z" transform="translate(-479.182 -170.69)"/><path class="e" d="M953.236,353.07c-.661,1.01-2.554,6.179-4.134,10.691-1.479-.575-2.822-4.245-2.822-4.245l7.885-11.216C954.973,349.411,954.443,351.253,953.236,353.07Z" transform="translate(-492.698 -206.876)"/><path class="t" d="M953.836,352.475c-.661,1.01-2.554,6.179-4.134,10.691-1.479-.57-2.822-4.245-2.822-4.245l7.885-11.211C955.572,348.815,955.042,350.663,953.836,352.475Z" transform="translate(-492.995 -206.583)"/><path class="v" d="M865.491,444.138l-4.371-13.786a1.287,1.287,0,0,1,.838-1.62h0a1.292,1.292,0,0,1,1.615.838l4.371,13.771-.434,2.882Z" transform="translate(-450.495 -246.677)"/><path class="w" d="M861.738,429.161h0a1.292,1.292,0,0,1,1.62.838l4.371,13.771-.328,2.16.318.333.434-2.882-4.4-13.771a1.292,1.292,0,0,0-1.615-.838h0a1.292,1.292,0,0,0-.671.5A1.759,1.759,0,0,1,861.738,429.161Z" transform="translate(-450.699 -246.697)"/><path class="x" d="M822.6,399.917l2.453-.777-.358,2.362-.076.52-.717-.747Z" transform="translate(-407.604 -202.457)"/><path class="y" d="M872.42,461.838a.5.5,0,0,1,.156-.131.222.222,0,0,1,.237,0,.626.626,0,0,1,.086.136.434.434,0,0,0,.313.207l-.076.5Z" transform="translate(-456.122 -263.019)"/><path class="q" d="M861.13,441.7s8.768-.05,6.7,3.68a7.886,7.886,0,0,1-5.29,4.18Z" transform="translate(-450.531 -253.128)"/><path class="m" d="M639.939,110.05h-.379a43.176,43.176,0,0,0-36.047,19.732,43.176,43.176,0,0,0-36.047-19.732h-.379a42.907,42.907,0,0,0-42.5,42.882c0,14.038,6.148,33.957,18.137,50.347,22.842,31.231,60.786,58.555,60.786,58.555s37.945-27.319,60.781-58.555c11.994-16.39,18.137-36.309,18.137-50.347a42.907,42.907,0,0,0-42.493-42.882Zm-5.416,95.632a8.506,8.506,0,0,1-7.91-5.462h-9.005a2.847,2.847,0,0,1-2.68-1.938l-2.766-8.334-8.753,30.585a2.832,2.832,0,0,1-2.716,2.044h-.177a2.8,2.8,0,0,1-2.625-2.342L588.87,165.98l-6.592,32.1a2.812,2.812,0,0,1-2.731,2.135H566.861a2.822,2.822,0,1,1,0-5.638h10.464l9.339-43.164a2.832,2.832,0,0,1,5.553.232l9.212,55.345,7.844-27.365a2.776,2.776,0,0,1,2.64-2.019h.055a2.817,2.817,0,0,1,2.675,1.938l5,15.048H626.5a8.46,8.46,0,1,1,8.036,11.105Z" transform="translate(-283.872 -88.891)"/></g></svg>