<svg xmlns="http://www.w3.org/2000/svg" width="519.558" height="475.782" viewBox="0 0 519.558 475.782"><defs><style>.a{fill:#e6e6e6;}.b{fill:#fff;}.c{fill:#3f3d56;}.d{fill:#111;}.e{fill:#93a5ff;}.f{fill:#f2f2f2;}</style></defs><g transform="translate(2.679 0)"><path class="a" d="M586.159,180.7h-2.516V111.777a39.889,39.889,0,0,0-39.89-39.889H397.736a39.889,39.889,0,0,0-39.89,39.889v378.1a39.89,39.89,0,0,0,39.889,39.89H543.753a39.889,39.889,0,0,0,39.89-39.889V229.757h2.516Z" transform="translate(-252.255 -71.887)"/><path class="b" d="M551.851,88.382h-19.06a14.153,14.153,0,0,1-13.1,19.5H436.035a14.153,14.153,0,0,1-13.1-19.5h-17.8a29.789,29.789,0,0,0-29.789,29.789v377.55a29.789,29.789,0,0,0,29.789,29.789H551.85a29.789,29.789,0,0,0,29.789-29.789h0V118.171A29.789,29.789,0,0,0,551.851,88.382Z" transform="translate(-258.742 -78.004)"/><path class="c" d="M305.014,603.154h-1.887l3.775-252.29h1.887Z" transform="translate(-113.407 -130.117)"/><path class="c" d="M384.789,603.154H382.9l-3.775-252.29h1.887Z" transform="translate(-141.592 -130.117)"/><rect class="c" width="44.041" height="1.887" transform="translate(194.124 225.78)"/><rect class="c" width="44.041" height="1.887" transform="translate(194.124 258.496)"/><rect class="c" width="45.928" height="1.887" transform="translate(193.495 291.212)"/><rect class="c" width="46.557" height="1.887" transform="translate(193.495 323.928)"/><rect class="c" width="47.816" height="1.887" transform="translate(192.866 356.644)"/><rect class="c" width="48.445" height="1.887" transform="translate(192.236 389.36)"/><rect class="c" width="49.703" height="1.887" transform="translate(191.607 422.076)"/><rect class="c" width="51.591" height="1.887" transform="translate(190.349 454.792)"/><circle class="d" cx="26.432" cy="26.432" r="26.432" transform="translate(187.615 290.797)"/><rect class="d" width="8.03" height="14.387" transform="translate(221.693 336.93) rotate(-10.261)"/><rect class="d" width="8.03" height="14.387" transform="translate(205.89 339.791) rotate(-10.261)"/><ellipse class="d" cx="6.692" cy="2.509" rx="6.692" ry="2.509" transform="matrix(0.763, -0.646, 0.646, 0.763, 204.298, 357.421)"/><ellipse class="d" cx="6.692" cy="2.509" rx="6.692" ry="2.509" transform="matrix(0.763, -0.646, 0.646, 0.763, 219.772, 354.619)"/><circle class="b" cx="9.034" cy="9.034" r="9.034" transform="translate(203.163 301.731)"/><circle class="c" cx="3.011" cy="3.011" r="3.011" transform="translate(205.473 304.515)"/><path class="e" d="M540.309,519.477c.4-9.786-8.036-18.074-18.837-18.513s-19.879,7.138-20.277,16.924,7.111,12.009,17.912,12.448S539.911,529.262,540.309,519.477Z" transform="translate(-305.41 -231.003)"/><ellipse class="d" cx="4.149" cy="13.216" rx="4.149" ry="13.216" transform="matrix(0.223, -0.975, 0.975, 0.223, 175.831, 313.506)"/><ellipse class="d" cx="4.149" cy="13.216" rx="4.149" ry="13.216" transform="matrix(0.223, -0.975, 0.975, 0.223, 227.716, 322.134)"/><path class="b" d="M534.732,590.81a6.023,6.023,0,1,1-11.85,2.157l0-.012c-.592-3.273,1.938-4.431,5.211-5.023S534.14,587.537,534.732,590.81Z" transform="translate(-313.425 -263.164)"/><path class="a" d="M571.125,298.688,401.931,313.851A3.149,3.149,0,0,1,398.517,311l-3.762-41.97a3.149,3.149,0,0,1,2.852-3.414L566.8,250.452a3.15,3.15,0,0,1,3.414,2.852l3.761,41.97A3.149,3.149,0,0,1,571.125,298.688Zm-173.4-31.819a1.89,1.89,0,0,0-1.711,2.048l3.762,41.97a1.889,1.889,0,0,0,2.048,1.711l169.194-15.164a1.89,1.89,0,0,0,1.711-2.048l-3.761-41.97a1.89,1.89,0,0,0-2.048-1.711Z" transform="translate(-265.938 -138.103)"/><circle class="c" cx="13.212" cy="13.212" r="13.212" transform="translate(142.552 136.453)"/><path class="a" d="M483.468,286.03a2.2,2.2,0,0,0,.393,4.386l103.4-9.267a2.2,2.2,0,1,0-.393-4.386Z" transform="translate(-298.098 -147.861)"/><path class="a" d="M485.342,306.946a2.2,2.2,0,1,0,.393,4.387l103.4-9.267a2.2,2.2,0,1,0-.393-4.386Z" transform="translate(-298.792 -155.618)"/><ellipse class="d" cx="13.548" cy="4.253" rx="13.548" ry="4.253" transform="matrix(0.357, -0.934, 0.934, 0.357, 230.65, 180.062)"/><circle class="d" cx="27.096" cy="27.096" r="27.096" transform="translate(183.329 211.789) rotate(-80.783)"/><rect class="d" width="8.232" height="14.748" transform="translate(202.068 210.65)"/><rect class="d" width="8.232" height="14.748" transform="translate(218.531 210.65)"/><ellipse class="d" cx="6.86" cy="2.572" rx="6.86" ry="2.572" transform="translate(202.068 222.997)"/><ellipse class="d" cx="6.86" cy="2.572" rx="6.86" ry="2.572" transform="translate(218.531 222.654)"/><path class="e" d="M488.8,319.5c-2.188-9.8,4.806-19.7,15.621-22.114s21.356,3.57,23.544,13.369-4.98,13.412-15.795,15.827S490.99,329.3,488.8,319.5Z" transform="translate(-300.671 -155.315)"/><ellipse class="d" cx="4.253" cy="13.548" rx="4.253" ry="13.548" transform="translate(169.833 174.849) rotate(-64.626)"/><circle class="d" cx="27.096" cy="27.096" r="27.096" transform="translate(24.068 409.928)"/><rect class="d" width="8.232" height="14.748" transform="translate(38.816 458.289)"/><rect class="d" width="8.232" height="14.748" transform="translate(55.28 458.289)"/><ellipse class="d" cx="6.86" cy="2.572" rx="6.86" ry="2.572" transform="translate(38.816 470.637)"/><ellipse class="d" cx="6.86" cy="2.572" rx="6.86" ry="2.572" transform="translate(55.28 470.294)"/><circle class="b" cx="9.261" cy="9.261" r="9.261" transform="translate(42.589 420.904)"/><circle class="c" cx="3.087" cy="3.087" r="3.087" transform="translate(48.763 427.077)"/><path class="a" d="M229.324,713.109c-2.188-9.8,4.806-19.7,15.621-22.114s21.356,3.57,23.544,13.369-4.98,13.412-15.795,15.827S231.512,722.907,229.324,713.109Z" transform="translate(-204.444 -301.283)"/><ellipse class="d" cx="13.548" cy="4.253" rx="13.548" ry="4.253" transform="matrix(0.357, -0.934, 0.934, 0.357, 58.137, 349.842)"/><circle class="d" cx="27.096" cy="27.096" r="27.096" transform="translate(10.818 381.571) rotate(-80.783)"/><rect class="d" width="8.232" height="14.748" transform="translate(29.556 380.431)"/><rect class="d" width="8.232" height="14.748" transform="translate(46.019 380.431)"/><ellipse class="d" cx="6.86" cy="2.572" rx="6.86" ry="2.572" transform="translate(29.556 392.779)"/><ellipse class="d" cx="6.86" cy="2.572" rx="6.86" ry="2.572" transform="translate(46.019 392.435)"/><circle class="b" cx="9.261" cy="9.261" r="9.261" transform="translate(33.329 343.045)"/><circle class="c" cx="3.087" cy="3.087" r="3.087" transform="translate(39.502 349.219)"/><path class="e" d="M214.6,589.358c-2.188-9.8,4.806-19.7,15.621-22.114s21.356,3.57,23.544,13.369-4.98,13.412-15.795,15.827S216.793,599.156,214.6,589.358Z" transform="translate(-198.986 -255.39)"/><ellipse class="d" cx="4.253" cy="13.548" rx="4.253" ry="13.548" transform="translate(-2.679 344.63) rotate(-64.626)"/><path class="b" d="M235.463,656.359c0,2.652,6.828,7.889,14.405,7.889s14.681-7.466,14.681-10.118-7.1.514-14.681.514S235.463,653.707,235.463,656.359Z" transform="translate(-206.869 -287.418)"/><ellipse class="d" cx="13.548" cy="4.253" rx="13.548" ry="4.253" transform="matrix(0.357, -0.934, 0.934, 0.357, 145.619, 369.421)"/><circle class="d" cx="27.096" cy="27.096" r="27.096" transform="translate(103.962 406.812) rotate(-80.783)"/><path class="d" d="M196.6,644.792h8.231l-1.611,17.662L196.6,659.54Z" transform="translate(-73.903 -239.119)"/><ellipse class="d" cx="2.572" cy="6.86" rx="2.572" ry="6.86" transform="translate(120.905 417.654) rotate(-28.232)"/><path class="d" d="M225.127,644.864h8.232l-1.611,17.662-6.621-2.914Z" transform="translate(-84.481 -239.146)"/><ellipse class="d" cx="2.572" cy="6.86" rx="2.572" ry="6.86" transform="translate(138.851 417.7) rotate(-28.232)"/><circle class="b" cx="9.261" cy="9.261" r="9.261" transform="translate(126.473 368.287)"/><circle class="c" cx="3.087" cy="3.087" r="3.087" transform="translate(132.647 374.461)"/><path class="f" d="M362.653,629.478c-2.188-9.8,4.806-19.7,15.621-22.114s21.356,3.57,23.544,13.369-4.98,13.412-15.795,15.827S364.84,639.276,362.653,629.478Z" transform="translate(-253.889 -270.269)"/><ellipse class="d" cx="4.253" cy="13.548" rx="4.253" ry="13.548" transform="translate(94.944 357.171) rotate(-36.45)"/><path class="b" d="M411.548,701.254c0-2.186-5.628-6.5-11.873-6.5s-12.1,6.154-12.1,8.339,5.855-.424,12.1-.424S411.548,703.439,411.548,701.254Z" transform="translate(-263.28 -302.875)"/><path class="c" d="M345.333,576.361a59.744,59.744,0,0,1-59.77-59.769c0-.125,0-.257.007-.382a59.768,59.768,0,1,1,86.3,53.951A59.21,59.21,0,0,1,345.333,576.361Zm0-118.281a58.636,58.636,0,0,0-58.5,58.169c-.007.134-.006.241-.006.342a58.519,58.519,0,1,0,58.511-58.511Z" transform="translate(-225.449 -214.639)"/><path class="e" d="M398.36,542.4l-40.909-23.619a1.258,1.258,0,0,0-1.887,1.09v47.238a1.258,1.258,0,0,0,1.887,1.09l40.909-23.619a1.258,1.258,0,0,0,0-2.179l-40.909-23.619a1.258,1.258,0,0,0-1.887,1.09v47.238a1.258,1.258,0,0,0,1.887,1.09l40.909-23.619a1.258,1.258,0,0,0,0-2.18Z" transform="translate(-251.409 -237.554)"/><ellipse class="a" cx="33.345" cy="1.258" rx="33.345" ry="1.258" transform="translate(108.559 469.262)"/><ellipse class="a" cx="33.345" cy="1.258" rx="33.345" ry="1.258" transform="translate(450.189 457.309)"/><path class="a" d="M869.2,726.2,719.671,645.595a3.149,3.149,0,0,1-1.276-4.262l20-37.091a3.149,3.149,0,0,1,4.262-1.276L892.18,683.574a3.149,3.149,0,0,1,1.276,4.262l-20,37.091A3.149,3.149,0,0,1,869.2,726.2ZM742.055,604.073a1.889,1.889,0,0,0-2.557.766l-20,37.091a1.889,1.889,0,0,0,.766,2.557L869.8,725.1a1.889,1.889,0,0,0,2.557-.766l20-37.092a1.89,1.89,0,0,0-.766-2.557Z" transform="translate(-385.824 -268.697)"/><circle class="e" cx="13.212" cy="13.212" r="13.212" transform="translate(351.508 352.821)"/><path class="a" d="M817.138,664.209a2.2,2.2,0,1,0-2.09,3.877l91.378,49.261a2.2,2.2,0,0,0,2.09-3.877Z" transform="translate(-421.378 -291.45)"/><path class="a" d="M807.173,682.694a2.2,2.2,0,0,0-2.09,3.877l91.378,49.261a2.2,2.2,0,0,0,2.09-3.877Z" transform="translate(-417.682 -298.305)"/></g></svg>