<svg xmlns="http://www.w3.org/2000/svg" xmlns:xlink="http://www.w3.org/1999/xlink" width="500.647" height="490.866" viewBox="0 0 500.647 490.866"><defs><style>.a{fill:#6c63ff;}.b{fill:#68bee4;opacity:0.2;}.c{fill:#60bae2;}.d,.p{fill:#fff;}.d,.k{opacity:0.05;}.e,.g{opacity:0.5;}.f{fill:#47e6b1;}.g{fill:#4d8af0;}.h{fill:url(#a);}.i{fill:#965d7b;}.j{fill:#575988;}.l{fill:#f7c4a7;}.m,.n{fill:#feefd8;}.m,.o{opacity:0.1;}.p{opacity:0.07;}.q{fill:#9deaa2;}</style><linearGradient id="a" x1="0.5" y1="1" x2="0.5" gradientUnits="objectBoundingBox"><stop offset="0" stop-color="gray" stop-opacity="0.251"/><stop offset="0.54" stop-color="gray" stop-opacity="0.122"/><stop offset="1" stop-color="gray" stop-opacity="0.102"/></linearGradient></defs><g transform="translate(-989 -149)"><path class="a" d="M684.167,704.53H204.774c-5.869,0-10.624,2.954-10.624,6.6v68.209c0,3.642,4.755,6.6,10.624,6.6H684.167c5.869,0,10.63-2.954,10.63-6.6V711.126C694.8,707.484,690.035,704.53,684.167,704.53Z" transform="translate(794.85 -146.064)"/><path class="b" d="M684.167,704.53H204.774c-5.869,0-10.624,2.954-10.624,6.6v68.209c0,3.642,4.755,6.6,10.624,6.6H684.167c5.869,0,10.63-2.954,10.63-6.6V711.126C694.8,707.484,690.035,704.53,684.167,704.53Z" transform="translate(794.85 -146.064)"/><rect class="c" width="500.628" height="76.651" rx="14.09" transform="translate(989.019 558.466)"/><rect class="d" width="500.628" height="6.609" transform="translate(989.019 569.038)"/><rect class="d" width="500.628" height="6.609" transform="translate(989.019 584.456)"/><rect class="d" width="500.628" height="6.609" transform="translate(989.019 599.874)"/><rect class="d" width="500.628" height="6.609" transform="translate(989.019 615.292)"/><g class="e" transform="translate(1339.716 240.535)"><rect class="f" width="1.93" height="10.939" transform="translate(4.504 0)"/><rect class="f" width="1.93" height="10.939" transform="translate(10.939 4.504) rotate(90)"/></g><g class="e" transform="translate(1117.072 408.484)"><rect class="f" width="1.93" height="10.939" transform="translate(4.504)"/><rect class="f" width="1.93" height="10.939" transform="translate(10.939 4.504) rotate(90)"/></g><g class="e" transform="translate(1410.072 167.484)"><rect class="f" width="1.93" height="10.939" transform="translate(4.504)"/><rect class="f" width="1.93" height="10.939" transform="translate(10.939 4.504) rotate(90)"/></g><g class="e" transform="translate(1111.924 215.44)"><rect class="f" width="1.93" height="10.939" transform="translate(4.504 0)"/><rect class="f" width="1.93" height="10.939" transform="translate(10.939 4.504) rotate(90)"/></g><g class="e" transform="translate(1409.855 396.258)"><rect class="f" width="1.93" height="10.939" transform="translate(4.504)"/><rect class="f" width="1.93" height="10.939" transform="translate(10.939 4.504) rotate(90)"/></g><path class="g" d="M737.892,328.614a2.368,2.368,0,0,1-1.287-2.857.765.765,0,0,0,.051-.264h0a1.184,1.184,0,0,0-2.156-.779h0a1.343,1.343,0,0,0-.129.232,2.368,2.368,0,0,1-2.857,1.287,1.2,1.2,0,0,0-.264-.051h0a1.184,1.184,0,0,0-.785,2.13h0a1.172,1.172,0,0,0,.232.129,2.362,2.362,0,0,1,1.287,2.857,1.282,1.282,0,0,0-.052.264h0a1.184,1.184,0,0,0,2.13.785h0a1.015,1.015,0,0,0,.129-.232,2.374,2.374,0,0,1,2.863-1.319,1.141,1.141,0,0,0,.257.051h0a1.184,1.184,0,0,0,.785-2.13h0A1.016,1.016,0,0,0,737.892,328.614Z" transform="translate(603.812 -10.469)"/><path class="g" d="M372.892,290.614a2.368,2.368,0,0,1-1.287-2.857.766.766,0,0,0,.051-.264h0a1.184,1.184,0,0,0-2.156-.779h0a1.341,1.341,0,0,0-.129.232,2.368,2.368,0,0,1-2.857,1.287,1.2,1.2,0,0,0-.264-.051h0a1.184,1.184,0,0,0-.785,2.13h0a1.17,1.17,0,0,0,.232.129,2.362,2.362,0,0,1,1.319,2.857,1.29,1.29,0,0,0-.051.264h0a1.184,1.184,0,0,0,2.13.785h0a1.017,1.017,0,0,0,.129-.232,2.374,2.374,0,0,1,2.863-1.319,1.137,1.137,0,0,0,.257.051h0a1.184,1.184,0,0,0,.785-2.13h0a1.017,1.017,0,0,0-.238-.1Z" transform="translate(733.942 3.079)"/><path class="g" d="M372.892,290.614a2.368,2.368,0,0,1-1.287-2.857.766.766,0,0,0,.051-.264h0a1.184,1.184,0,0,0-2.156-.779h0a1.341,1.341,0,0,0-.129.232,2.368,2.368,0,0,1-2.857,1.287,1.2,1.2,0,0,0-.264-.051h0a1.184,1.184,0,0,0-.785,2.13h0a1.17,1.17,0,0,0,.232.129,2.362,2.362,0,0,1,1.319,2.857,1.29,1.29,0,0,0-.051.264h0a1.184,1.184,0,0,0,2.13.785h0a1.017,1.017,0,0,0,.129-.232,2.374,2.374,0,0,1,2.863-1.319,1.137,1.137,0,0,0,.257.051h0a1.184,1.184,0,0,0,.785-2.13h0a1.017,1.017,0,0,0-.238-.1Z" transform="translate(1060.942 -0.921)"/><path class="g" d="M516.892,95.614a2.368,2.368,0,0,1-1.287-2.857.765.765,0,0,0,.052-.264h0a1.184,1.184,0,0,0-2.156-.779h0a1.339,1.339,0,0,0-.129.232,2.368,2.368,0,0,1-2.857,1.319,1.2,1.2,0,0,0-.264-.051h0a1.184,1.184,0,0,0-.785,2.13h0a1.17,1.17,0,0,0,.232.129,2.362,2.362,0,0,1,1.319,2.857,1.286,1.286,0,0,0-.052.264h0a1.184,1.184,0,0,0,2.13.785h0a1.017,1.017,0,0,0,.129-.232,2.374,2.374,0,0,1,2.864-1.319,1.139,1.139,0,0,0,.257.051h0a1.184,1.184,0,0,0,.785-2.13h0A1.016,1.016,0,0,0,516.892,95.614Z" transform="translate(681.316 57.8)"/><path class="h" d="M618.081,561.858l-31.312-24.047s-2.522-10.013-3.533-17.026-2.529-37.064-2.529-37.064a43.581,43.581,0,0,0,1.422-7.953c.309-.064.643-.142.933-.225a15.6,15.6,0,0,0,10.547-9.092c3.217-8-.939-17.464-6.2-23.809s-11.891-11.441-15.353-19.3c-4.273-9.684-2.812-21.4-4.993-32.007a9.685,9.685,0,0,0-1.609-4.138c-1.358-1.68-3.475-2.04-5.36-2.709-5.972-2.123-10.45-7.921-13.944-13.976-5.656-9.813-11.512-24.742-23.165-25.591-4.331-.315-8.848,1.145-13.23,1.133a146.676,146.676,0,0,0-20.244,1.017c-2.407.328-4.9.779-6.9,2.362-6.892,5.457-3.771,19.864-10.411,25.739-1.976,1.737-4.5,2.368-6.737,3.565-8.417,4.5-12.155,16.518-11.66,27.322.238,5.071,1.287,10.341,4.279,14.041,2.374,2.96,5.746,4.659,7.96,7.786,3.558,5.032,3.076,11.718,2.69,18.513-4.762,1.995-8.584,4.286-9.787,6.75-4.08,8.282-3.552,36.595-3.552,36.595s1.512,46.331-10.109,52.122l-43.448,30.051s-30.823-26.794-38.4-11.016c-5.18,10.791,13.738,16.9,26.222,19.678-7.87,5.585-12.226,15.907-8.539,22.9C386.9,614.489,403.088,622,403.088,622s61.742,2.979,90.28-3.417h.47c12.117,2.194,29.5,4.5,43.448,3.114.27.643.457,1.055.457,1.055s89.444,7.516,105.6-23.037c8.288-15.675-.36-22.908-10.759-26.241,11.641-.927,24.9-4.183,26.421-14.086C661.786,541.318,618.081,561.858,618.081,561.858Zm-9.009,9.581c-16.37,5.959-29.652,6.293-36.73,5.849-3.475-7.58-17.966-40.4-18.346-62.379.1-4.9.965-9.189,2.928-12.406,4.208-6.93,5.457-12.368,5.315-16.492v-.9a16.839,16.839,0,0,0-.36-3.752,9.871,9.871,0,0,1,.592,5.367c-1.512,7.76,2.529,58.1,2.529,58.1s3.282,11.274,10.1,14.523Zm-160.278-3.571,15.714-10.019a15.452,15.452,0,0,0,8.089-12.02l5.18-40.687a41.454,41.454,0,0,0,1.384,5.148c.914,2.67,1.287,6.583,1.364,11.242-.2,22.708-7.928,60.384-7.928,60.384h.09a1.262,1.262,0,0,1-.051.27l-.547.032c-12.709-.386-42.328-1.493-58.9-3.79Zm-27.4,23.712v.077h-3.861Z" transform="translate(734.813 -17.838)"/><path class="i" d="M596.527,377.2c3.372,5.907,7.722,11.583,13.513,13.622,1.821.643,3.861,1.01,5.148,2.651a9.485,9.485,0,0,1,1.564,4.035c2.1,10.334.7,21.756,4.826,31.209,3.346,7.651,9.749,12.632,14.839,18.8s9.08,15.4,6,23.2a15.141,15.141,0,0,1-10.2,8.867c-4.26,1.158-8.706.676-13.03-.09-5.7-1.01-11.505-2.574-16.254-6.435-8.217-6.679-11.692-18.661-15.99-29.323-2.021-4.993-4.7-10.225-9.144-12.007-5.083-2.046-10.8,1.371-14.105,6.383s-4.762,11.312-6.364,17.374c-1.8,6.847-4.08,13.951-8.822,18.429a14.845,14.845,0,0,1-15.855,3.166c-5.277-2.194-9.446-7.76-10.662-14.215-1.866-9.942,2.612-21.878-2.889-29.742-2.136-3.044-5.4-4.7-7.69-7.587-2.863-3.61-3.906-8.751-4.131-13.687-.483-10.54,3.127-22.284,11.267-26.647,2.175-1.165,4.6-1.776,6.512-3.475,6.435-5.721,3.4-19.768,10.058-25.1,1.93-1.551,4.35-1.982,6.679-2.31a139.072,139.072,0,0,1,19.562-.985c4.241,0,8.61-1.416,12.792-1.107C585.408,353.079,591.064,367.634,596.527,377.2Z" transform="translate(683.23 -20.448)"/><path class="j" d="M264.1,647.039l2.465,29.195,172.382-1.03-3.288-31.872-58.28-6.782-102.2,6.171Z" transform="translate(894.862 -77.254)"/><path class="k" d="M264.1,647.039l2.465,29.195,172.382-1.03-3.288-31.872-58.28-6.782-102.2,6.171Z" transform="translate(894.862 -77.254)"/><path class="l" d="M602.756,753.82l-57.386,5.373s39.317,10.013,62.27,5.148Z" transform="translate(669.633 -163.637)"/><path class="m" d="M602.756,753.82l-57.386,5.373s39.317,10.013,62.27,5.148Z" transform="translate(669.633 -163.637)"/><path class="n" d="M559.086,434.29s11.235,29.549-5.373,42.734-2.928,50.063-2.928,50.063l63.981-2.934s6.345-41.511,2.928-50.3c0,0-15.141,4.395-18.558-4.884s-5.862-34.677-5.862-34.677Z" transform="translate(669.591 -49.718)"/><path class="j" d="M491.186,708.935s-53.969-1.223-69.837-5.148S391.8,718.7,397.418,729.474s21.235,18.069,21.235,18.069,80.345,3.906,97.68-7.078c0,0,6.6-18.8,0-22.464H432.578l61.774-1.223Z" transform="translate(722.839 -145.61)"/><path class="j" d="M660.224,700.1S678.3,704,703.2,694.234c0,0,46.646-1.461,31.016,28.313s-102.075,22.47-102.075,22.47-5.148-10.991,0-13.919,49.818-21.737,63.737-20.759l-38.609,7.567Z" transform="translate(639.513 -142.389)"/><path class="o" d="M603.428,449.385c-.933-6.956-1.48-12.625-1.48-12.625H567.76a66.606,66.606,0,0,1,3.269,13.822,26.865,26.865,0,0,0,32.4-1.2Z" transform="translate(661.651 -50.599)"/><circle class="n" cx="26.859" cy="26.859" r="26.859" transform="translate(1220.499 349.534)"/><path class="n" d="M499.534,492.628S467.3,498.734,463.4,506.784s-3.417,35.655-3.417,35.655,1.461,45.172-9.768,50.79l-42.006,29.3s-29.787-26.125-37.116-10.746,35.166,21,35.166,21l47.373-14.157,15.141-9.768a15.045,15.045,0,0,0,7.812-11.724l6.351-50.3,25.4-7.329h41.022l5.5-15.688s10.135,8.121,8.668,15.688,2.445,56.626,2.445,56.626,3.172,10.984,9.768,14.157l38.094,13.674s40.288,3.906,42.978-13.674-39.561,2.5-39.561,2.5l-30.3-23.468s-2.439-9.768-3.417-16.608-2.439-36.138-2.439-36.138,9.279-30.771-17.586-36.138L528.819,489.7Z" transform="translate(732.071 -69.473)"/><path class="o" d="M536.845,499.538l5.006,33.088s-5.148,15.386,0,30.527-6.351,71.561-6.351,71.561,60.32,19.3,97.165-2.934c0,0-27.1-57.141-15.63-76.188s.193-26.5.193-26.5l1.763-35.038-8.3-2.445-4.884,34.677s-33.7,23.442-58.608,2.934l-5.373-37.611Z" transform="translate(673.152 -70.154)"/><path class="p" d="M577.54,559.854a19.787,19.787,0,0,0-25.61-7.2C560.109,558.8,569.13,560.44,577.54,559.854Z" transform="translate(667.295 -91.173)"/><path class="p" d="M613.24,554.2a19.755,19.755,0,0,1,25.585-7.2C630.665,553.123,621.65,554.758,613.24,554.2Z" transform="translate(645.436 -89.159)"/><path class="o" d="M536.845,498.586l5.006,31.376s-5.148,15.386,0,30.527-6.351,71.549-6.351,71.549,60.32,19.3,97.166-2.928c0,0-27.1-57.141-15.63-76.188s.193-26.5.193-26.5l1.763-35.044-8.3-2.439-4.884,34.677s-33.7,23.442-58.608,2.928l-5.373-37.6Z" transform="translate(673.152 -69.202)"/><path class="q" d="M536.6,498.612l5.251,32.11s-5.148,15.386,0,30.527S535.5,632.8,535.5,632.8s60.32,19.3,97.165-2.928c0,0-27.1-57.148-15.63-76.195s.193-26.492.193-26.492l1.763-35.044-8.3-2.439-4.884,34.677s-33.7,23.442-58.608,2.928L541.825,489.7Z" transform="translate(673.152 -69.473)"/><path class="n" d="M575.73,724.272l12.7-1.718s14.652-18.8,25.154-4.395c0,0,4.395,9.279,9.768,10.984a72.144,72.144,0,0,0,11.235,2.445L612.846,737.7s-9.523,5.618-19.536,4.15a37.883,37.883,0,0,0-17.58,1.467Z" transform="translate(658.809 -148.986)"/><path class="o" d="M553.91,605.283s22.953,3.417,26.859-2.683" transform="translate(666.589 -109.724)"/><path class="o" d="M621.46,600.7s4.4,4.395,21.975,1.223" transform="translate(642.506 -109.047)"/><path class="o" d="M552,494.82s16.853,2.445,20.025.978" transform="translate(667.27 -71.298)"/><path class="o" d="M609.69,494.82s16.853,2.445,20.025.978" transform="translate(646.702 -71.298)"/><path class="o" d="M572.349,727.83s4.646,21.878,0,22.651-11.229-3.6-11.229-4.093,2.928-14.407,2.928-14.407Z" transform="translate(664.018 -154.371)"/><path class="j" d="M571.6,727.83s4.64,21.878,0,22.651-11.235-3.6-11.235-4.093,2.928-14.407,2.928-14.407Z" transform="translate(664.289 -154.371)"/><path class="o" d="M541.523,479.619c-2.053,4.755-2.78,10.366-.6,15.064,1.66,3.584,4.91,6.486,5.534,10.386.785,4.9-2.844,9.865-1.486,14.633a13.428,13.428,0,0,0,2.941,4.813c3.719,4.4,8.661,8.655,14.4,8.314.914-8.867-6.757-17.471-4.247-26.022.9-3.063,3.011-5.611,4.286-8.533,2.117-4.845,1.815-10.379,1.049-15.611-1.113-7.593-3.932-16.9-11.46-20.45-3.455-1.634-8.365-1.757-9.594,2.683-.676,2.368.9,4.594,1.113,6.911C543.717,474.748,542.662,476.981,541.523,479.619Z" transform="translate(671.692 -59.302)"/><path class="i" d="M541.523,478.487c-2.053,4.755-2.78,10.36-.6,15.064,1.66,3.578,4.91,6.486,5.534,10.379.785,4.9-2.844,9.865-1.486,14.633a13.453,13.453,0,0,0,2.941,4.82c3.719,4.389,8.661,8.648,14.4,8.307.914-8.867-6.757-17.47-4.247-26.022.9-3.063,3.011-5.611,4.286-8.533,2.117-4.845,1.815-10.379,1.049-15.611-1.113-7.593-3.932-16.9-11.46-20.45-3.455-1.634-8.365-1.75-9.594,2.683-.676,2.368.9,4.594,1.113,6.911C543.717,473.609,542.662,475.842,541.523,478.487Z" transform="translate(671.692 -58.896)"/><path class="o" d="M545.56,388.707s35.649-4.884,36.627,2.439,32.483,19.3,32.483,19.3l-7.818-19.3-14.407-23.931s-26.383-1.93-27.592,0-15.148,8.3-15.148,8.3Z" transform="translate(669.565 -25.499)"/><path class="i" d="M545.56,387.947s35.649-4.884,36.627,2.439,32.483,19.3,32.483,19.3l-7.818-19.3-14.407-23.931s-26.383-1.93-27.592,0-15.148,8.3-15.148,8.3Z" transform="translate(669.565 -25.228)"/><path class="o" d="M640.4,478.524a17.374,17.374,0,0,1,3.578,7.162c.592,2.522.643,5.148,1.178,7.67,1.2,5.373,4.755,9.89,8.462,13.957a15.232,15.232,0,0,0,4.331,3.642,5.669,5.669,0,0,0,5.431,0A9.727,9.727,0,0,1,660.545,506a25.384,25.384,0,0,1-.991-7.986c.161-4.5,1.48-9.26-.393-13.365a16.492,16.492,0,0,0-5.148-5.791,27.727,27.727,0,0,0-4.594-3.018,28.561,28.561,0,0,0-9.865-2.51C635.192,472.887,639.008,476.877,640.4,478.524Z" transform="translate(636.778 -63.625)"/><path class="i" d="M640.4,477.387a17.277,17.277,0,0,1,3.578,7.155c.592,2.522.643,5.148,1.178,7.67,1.2,5.373,4.755,9.89,8.462,13.957a15.232,15.232,0,0,0,4.331,3.642,5.669,5.669,0,0,0,5.431,0,9.7,9.7,0,0,1-2.838-4.955,25.384,25.384,0,0,1-.991-7.986c.161-4.5,1.48-9.26-.393-13.365a16.6,16.6,0,0,0-5.148-5.791,27.366,27.366,0,0,0-4.594-3.024,28.561,28.561,0,0,0-9.865-2.51C635.192,471.744,639.008,475.734,640.4,477.387Z" transform="translate(636.778 -63.215)"/><path class="q" d="M617.36,110.05h-.3a34.725,34.725,0,0,0-28.991,15.87,34.725,34.725,0,0,0-28.991-15.87h-.3a34.508,34.508,0,0,0-34.179,34.488c0,11.29,4.945,27.31,14.587,40.492,18.37,25.118,48.888,47.094,48.888,47.094s30.517-21.972,48.884-47.094c9.646-13.182,14.587-29.2,14.587-40.492A34.508,34.508,0,0,0,617.36,110.05ZM613,186.963a6.841,6.841,0,0,1-6.362-4.393H599.4a2.29,2.29,0,0,1-2.156-1.559l-2.225-6.7-7.04,24.6a2.278,2.278,0,0,1-2.184,1.644h-.142a2.249,2.249,0,0,1-2.111-1.884l-7.255-43.635-5.3,25.82a2.261,2.261,0,0,1-2.2,1.717h-10.2a2.269,2.269,0,1,1,0-4.535H567l7.511-34.715a2.278,2.278,0,0,1,4.466.187l7.409,44.511L592.7,166.01a2.233,2.233,0,0,1,2.123-1.624h.045a2.265,2.265,0,0,1,2.152,1.559l4.023,12.1h5.513a6.8,6.8,0,1,1,6.463,8.932Z" transform="translate(656.722 72.039)"/></g></svg>