<svg xmlns="http://www.w3.org/2000/svg" width="73.146" height="73.149" viewBox="0 0 73.146 73.149"><defs><style>.a{fill:#93a5ff;}.b{fill:rgba(140,58,170,0);}</style></defs><path class="a" d="M24.385,36.574a12.191,12.191,0,1,1,12.19,12.192,12.191,12.191,0,0,1-12.19-12.192m-6.591,0A18.781,18.781,0,1,0,36.574,17.794,18.78,18.78,0,0,0,17.794,36.574M51.709,17.049A4.389,4.389,0,1,0,56.1,12.662h0a4.391,4.391,0,0,0-4.389,4.387M21.8,66.345a20.214,20.214,0,0,1-6.792-1.258A11.367,11.367,0,0,1,10.8,62.351a11.284,11.284,0,0,1-2.736-4.2,20.2,20.2,0,0,1-1.258-6.792c-.177-3.855-.213-5.013-.213-14.78s.038-10.922.213-14.78A20.348,20.348,0,0,1,8.064,15,11.367,11.367,0,0,1,10.8,10.8,11.272,11.272,0,0,1,15.006,8.06,20.2,20.2,0,0,1,21.8,6.8c3.855-.177,5.013-.213,14.776-.213s10.922.038,14.78.213A20.348,20.348,0,0,1,58.147,8.06,11.331,11.331,0,0,1,62.354,10.8,11.331,11.331,0,0,1,65.09,15a20.2,20.2,0,0,1,1.258,6.792c.177,3.858.213,5.013.213,14.78s-.035,10.922-.213,14.78a20.29,20.29,0,0,1-1.258,6.792,12.11,12.11,0,0,1-6.943,6.94,20.2,20.2,0,0,1-6.792,1.258c-3.855.177-5.013.213-14.78.213s-10.922-.035-14.776-.213M21.5.221a26.819,26.819,0,0,0-8.878,1.7A17.939,17.939,0,0,0,6.139,6.139,17.87,17.87,0,0,0,1.92,12.618,26.827,26.827,0,0,0,.221,21.5C.041,25.4,0,26.642,0,36.574S.041,47.754.221,51.653a26.825,26.825,0,0,0,1.7,8.878A17.879,17.879,0,0,0,6.139,67.01a17.983,17.983,0,0,0,6.479,4.219,26.842,26.842,0,0,0,8.878,1.7c3.9.177,5.146.221,15.079.221s11.179-.041,15.079-.222a26.824,26.824,0,0,0,8.878-1.7,18.7,18.7,0,0,0,10.7-10.7,26.751,26.751,0,0,0,1.7-8.878c.177-3.9.219-5.146.219-15.079S73.1,25.4,72.927,21.5a26.816,26.816,0,0,0-1.7-8.878A17.986,17.986,0,0,0,67.01,6.139,17.9,17.9,0,0,0,60.534,1.92a26.783,26.783,0,0,0-8.878-1.7C47.757.044,46.51,0,36.577,0S25.4.041,21.5.221" transform="translate(0 0)"/><path class="b" d="M24.385,36.574a12.191,12.191,0,1,1,12.19,12.192,12.191,12.191,0,0,1-12.19-12.192m-6.591,0A18.781,18.781,0,1,0,36.574,17.794,18.78,18.78,0,0,0,17.794,36.574M51.709,17.049A4.389,4.389,0,1,0,56.1,12.662h0a4.391,4.391,0,0,0-4.389,4.387M21.8,66.345a20.214,20.214,0,0,1-6.792-1.258A11.367,11.367,0,0,1,10.8,62.351a11.284,11.284,0,0,1-2.736-4.2,20.2,20.2,0,0,1-1.258-6.792c-.177-3.855-.213-5.013-.213-14.78s.038-10.922.213-14.78A20.348,20.348,0,0,1,8.064,15,11.367,11.367,0,0,1,10.8,10.8,11.272,11.272,0,0,1,15.006,8.06,20.2,20.2,0,0,1,21.8,6.8c3.855-.177,5.013-.213,14.776-.213s10.922.038,14.78.213A20.348,20.348,0,0,1,58.147,8.06,11.331,11.331,0,0,1,62.354,10.8,11.331,11.331,0,0,1,65.09,15a20.2,20.2,0,0,1,1.258,6.792c.177,3.858.213,5.013.213,14.78s-.035,10.922-.213,14.78a20.29,20.29,0,0,1-1.258,6.792,12.11,12.11,0,0,1-6.943,6.94,20.2,20.2,0,0,1-6.792,1.258c-3.855.177-5.013.213-14.78.213s-10.922-.035-14.776-.213M21.5.221a26.819,26.819,0,0,0-8.878,1.7A17.939,17.939,0,0,0,6.139,6.139,17.87,17.87,0,0,0,1.92,12.618,26.827,26.827,0,0,0,.221,21.5C.041,25.4,0,26.642,0,36.574S.041,47.754.221,51.653a26.825,26.825,0,0,0,1.7,8.878A17.879,17.879,0,0,0,6.139,67.01a17.983,17.983,0,0,0,6.479,4.219,26.842,26.842,0,0,0,8.878,1.7c3.9.177,5.146.221,15.079.221s11.179-.041,15.079-.222a26.824,26.824,0,0,0,8.878-1.7,18.7,18.7,0,0,0,10.7-10.7,26.751,26.751,0,0,0,1.7-8.878c.177-3.9.219-5.146.219-15.079S73.1,25.4,72.927,21.5a26.816,26.816,0,0,0-1.7-8.878A17.986,17.986,0,0,0,67.01,6.139,17.9,17.9,0,0,0,60.534,1.92a26.783,26.783,0,0,0-8.878-1.7C47.757.044,46.51,0,36.577,0S25.4.041,21.5.221" transform="translate(0 0)"/></svg>