<svg xmlns="http://www.w3.org/2000/svg" width="274" height="90" viewBox="0 0 274 90"><defs><style>.a{fill:#a5a19b;font-size:68px;font-family:SegoeUI, Segoe UI;}.b{fill:#3dbee4;}.c{fill:#9deaa2;}.d{fill:#fff;}</style></defs><g transform="translate(-212 -3319)"><text class="a" transform="translate(393 3392)"><tspan x="-92.404" y="0">Saúde</tspan></text><g transform="translate(212 3335.849)"><rect class="b" width="33" height="68" rx="12" transform="translate(17 0.151)"/><rect class="c" width="30" height="67" rx="12" transform="translate(0 49.151) rotate(-90)"/><path class="d" d="M16.032,3.937H15.99A4.744,4.744,0,0,0,12.035,6.09,4.744,4.744,0,0,0,8.08,3.937H8.038A4.693,4.693,0,0,0,3.375,8.615a10.038,10.038,0,0,0,1.99,5.493,34.8,34.8,0,0,0,6.67,6.387,34.8,34.8,0,0,0,6.67-6.387,10.038,10.038,0,0,0,1.99-5.493A4.693,4.693,0,0,0,16.032,3.937Z" transform="translate(21.596 21.898)"/></g></g></svg>