<svg xmlns="http://www.w3.org/2000/svg" width="202" height="66" viewBox="0 0 202 66"><defs><style>.a{fill:#222;font-size:49px;font-family:SegoeUI, Segoe UI;}.b{fill:#3dbee4;}.c{fill:#9deaa2;}.d{fill:#fff;}</style></defs><g transform="translate(-278 -48)"><text class="a" transform="translate(413 101)"><tspan x="-66.585" y="0">Saúde</tspan></text><g transform="translate(278 60.792)"><g transform="translate(0 0)"><rect class="b" width="24" height="53" rx="5" transform="translate(13 0.208)"/><rect class="c" width="23" height="50" rx="5" transform="translate(0 37.208) rotate(-90)"/><path class="d" d="M12.933,3.937H12.9A3.565,3.565,0,0,0,9.915,5.6,3.565,3.565,0,0,0,6.928,3.937H6.9a3.584,3.584,0,0,0-3.521,3.61,7.855,7.855,0,0,0,1.5,4.239,26.51,26.51,0,0,0,5.037,4.929,26.51,26.51,0,0,0,5.037-4.929,7.855,7.855,0,0,0,1.5-4.239A3.584,3.584,0,0,0,12.933,3.937Z" transform="translate(15.483 15.756)"/></g></g></g></svg>